<?xml version="1.0" encoding="utf-8"?>
<!-- Generator: Adobe Illustrator 21.0.2, SVG Export Plug-In . SVG Version: 6.00 Build 0)  -->
<svg version="1.1" id="HA_Siren_Lockup_K_3425" xmlns="http://www.w3.org/2000/svg" xmlns:xlink="http://www.w3.org/1999/xlink"
	 x="0px" y="0px" viewBox="0 0 458.8 116.1" style="enable-background:new 0 0 458.8 116.1;" xml:space="preserve">
<style type="text/css">
	.st0{fill:#231F20;}
	.st1{fill:none;}
	.st2{fill:#FFFFFF;}
	.st3{fill:#006241;}
</style>
<title>HA Siren Lockup_K_3425</title>
<polyline class="st0" points="235.1,67.8 234,67.8 234,49.2 237.1,49.2 237.1,44.2 238.2,44.2 238.2,50.2 235.1,50.2 235.1,67.8 "/>
<polyline class="st0" points="288.8,55.2 285.1,55.2 285.1,54.1 287.7,54.1 287.7,44 288.8,44 288.8,55.2 "/>
<polyline class="st0" points="375.2,57.3 368.8,57.3 368.8,56.2 374.1,56.2 374.1,48.3 375.2,48.3 375.2,57.3 "/>
<path class="st0" d="M357.5,79.1c-6.9,0-10.5-2.1-12.5-3.2c-0.3-0.2-0.7-0.4-1-0.5l0.4-1c0.4,0.2,0.8,0.4,1.1,0.6
	c3.6,2.2,7.7,3.2,11.9,3.1c7.8,0,9.9-1.3,11.9-2.6l0.3-0.2c2.1-1.4,3.2-1.9,3.3-1.9l0.2-0.1h1v-8.5h1.1v9.7h-1.9
	c-0.3,0.2-1.4,0.7-3.1,1.8l-0.3,0.2C367.9,77.7,365.7,79.1,357.5,79.1"/>
<rect x="211.7" y="49.3" class="st0" width="1.1" height="18.5"/>
<polyline class="st0" points="215.3,77.6 203.1,77.6 203.1,76.5 214.2,76.5 214.2,71.6 215.3,71.6 215.3,77.6 "/>
<polyline class="st0" points="192.2,77.6 180.1,77.6 180.1,76.5 191.1,76.5 191.1,71.6 192.2,71.6 192.2,77.6 "/>
<path class="st0" d="M189.6,55.9h-1.1v-1.2c0-3.6,0-4,1.3-4.7l0.3-0.1c2.7-1.5,10-0.4,10.3-0.4l-0.2,1.1c-2-0.3-7.6-0.9-9.6,0.2
	l-0.3,0.2c-0.7,0.4-0.7,0.4-0.7,3.7V55.9"/>
<polyline class="st0" points="189.6,68.5 188.5,68.5 188.5,65 201.1,65 201.1,66.1 189.6,66.1 189.6,68.5 "/>
<path class="st0" d="M247.1,77.6h-22.5v-1.1H247c0.8,0,1.6-0.3,2.3-0.8c0.6-0.7,1-1.7,0.9-2.6V67h1.1v6.1c0.1,1.3-0.4,2.5-1.3,3.4
	C249.2,77.3,248.2,77.7,247.1,77.6"/>
<path class="st0" d="M267.5,53c-0.4-0.7-0.4-1.6,0-2.3c0.5-0.8,1.4-1.2,2.4-1.2c2.5,0,5.1,0.1,7.6,0.4l-0.1,1.1
	c-2.5-0.3-5-0.4-7.4-0.3c-0.6,0-1.1,0.2-1.5,0.6c-0.2,0.4-0.2,0.9,0,1.3L267.5,53"/>
<path class="st0" d="M274,78.4c-2.6,0-5.3-0.3-7.8-0.9v0.1H262v-1.1h3.1V76l0.7,0.2c4,1.4,11.6,1.5,15.2,0.2c2.1-0.9,4.2-2,6.1-3.2
	c0.3-0.2,0.5-0.4,0.7-0.7c-0.2-0.4-0.3-4.6,0-12.6h1.1c-0.1,4.3-0.2,11.5,0,12.2c0.5,0.9-0.8,1.8-1.1,2c-2,1.3-4.1,2.4-6.4,3.3
	C279,78.1,276.5,78.5,274,78.4"/>
<path class="st0" d="M276.2,64.7c-1.3,0-12.4-0.4-14.6-2.6l0.8-0.8c1.6,1.6,10.6,2.2,13.9,2.3L276.2,64.7"/>
<polyline class="st0" points="396.6,67.6 395.5,67.6 395.5,50.4 398.3,50.4 398.3,44.2 399.4,44.2 399.4,51.5 396.6,51.5 
	396.6,67.6 "/>
<polyline class="st0" points="399.1,77.5 386.4,77.5 386.4,76.4 398,76.4 398,70.6 399.1,70.6 399.1,77.5 "/>
<path class="st0" d="M352.8,65.6h-1.1V53.2c0-1.3,1-2.5,2.3-2.8c2.5-0.9,8.7,0,9,0l-0.2,1.1c-0.1,0-6.2-0.9-8.5-0.1
	c-0.9,0.2-1.5,0.9-1.6,1.8L352.8,65.6"/>
<path class="st0" d="M241.9,69h-9c0,0-0.2-22.4,0-21.3c0.7,0,2.5-0.1,2.5-0.1v-5h-12.1v5l2.5,0.1c0,0,0.4,20.5,0,21.2
	c-0.6,0-2.5,0.1-2.5,0.1v6h23c1.2,0,2.3-0.9,2.3-2.1v-0.1v-8.1H242L241.9,69"/>
<path class="st0" d="M384.5,48.6l2.5,0.1c0,0,0.4,19.6,0,20.3c-0.6,0-2.5,0.1-2.5,0.1V75h12.1v-5.9c0,0-1.5-0.1-2.5-0.1
	c-0.2-0.4,0-20.3,0-20.3l2.5-0.1v-5.9h-12.1V48.6"/>
<path class="st0" d="M369.9,44.9l-0.7-0.6c-0.5-0.3-1-0.6-1.5-0.9c-2.3-1.1-5.4-1.7-9.4-1.7h-1.6c-2,0-4,0.2-6,0.7h-0.1
	c-1.4,0.5-2.8,1.1-4.1,1.8l-4.2,2.1l0.2,1.9v0.1c0.2,0.9,0.2,1.7,0.3,2.6c0,0.1,0,0.1,0,0.2c0,0.3,0,0.5,0,0.7v14c0,0.2,0,0.5,0,0.7
	c0,0.1,0,0.1,0,0.2c0,0.8-0.1,1.7-0.3,2.5v0.1l-0.2,1.9l4.2,2.1c1.3,0.7,2.7,1.4,4.1,1.8h0.1c2,0.5,4,0.7,6,0.7h1.6
	c3.2,0.1,6.4-0.4,9.4-1.7c0.5-0.3,1-0.6,1.5-0.9l0.7-0.6c0.5-0.5,1-0.9,1.6-1.2l1-0.1v-0.5v-1.9v-6.1h-6.8v1.4c0,0.5,0,1.1-0.1,1.6
	c-0.1,0.4-0.2,0.8-0.4,1.1l-0.1,0.1c0,0.1-0.1,0.1-0.1,0.1l-0.2,0.2c-1.1,1.1-3.3,1.7-6.6,1.7H358c-0.4,0-1.6,0-1.9,0h-0.4h-0.6
	h-0.4l-0.5-0.1l-0.4-0.1l-0.4-0.1l-0.3-0.1l-0.4-0.1l-0.3-0.1l-0.3-0.1c-0.2-0.1-0.3-0.1-0.5-0.2l-0.2-0.1l-0.2-0.1l-0.2-0.1
	l-0.2-0.2l-0.1-0.1c-0.1-0.1-0.1-0.1-0.2-0.2l-0.1-0.1l-0.1-0.2v-0.1c-0.2-0.5-0.4-1-0.5-1.5s-0.1-1-0.1-1.4V53.6c0-0.5,0-1,0.1-1.4
	c0.1-0.5,0.2-1,0.5-1.5v-0.1c0-0.1,0.1-0.1,0.1-0.2l0.1-0.1l0.2-0.2l0.1-0.1l0.2-0.2l0.2-0.1c0.1-0.1,0.1-0.1,0.2-0.1
	s0.1-0.1,0.2-0.1c0.2-0.1,0.3-0.2,0.5-0.2l0.3-0.1l0.3-0.1c0.1,0,0.2-0.1,0.4-0.1l0.3-0.1l0.4-0.1c0.1,0,0.2,0,0.4-0.1l0.5-0.1h0.4
	c0.2,0,0.4,0,0.6-0.1h0.4c0.3,0,1.5,0,1.9,0h0.1c3.3,0,5.5,0.6,6.6,1.7l0.2,0.2l0.1,0.1l0.1,0.1c0.2,0.3,0.3,0.7,0.4,1.1
	c0.1,0.5,0.1,1,0.1,1.6v1.2h6.7v-7v-1.4l-1-0.1C370.8,45.7,370.3,45.3,369.9,44.9"/>
<path class="st0" d="M202.9,57.4h-16v-4.6c0-2.7,0.8-3.6,1.9-4.2c1.8-0.8,3.8-1.1,5.8-1c2.6,0,5.3,0.3,6.5,1s1.9,1.6,1.9,4.2
	L202.9,57.4 M209.9,52.3c0-0.9,0.1-3.7,0.1-4l0.1-0.6l-0.4-0.4c0,0-1.6-1.6-2.9-2.7l-0.7-0.6c-2.4-1.7-6.7-2.6-11.7-2.6h-0.1
	c-5,0-8.6,0.9-11,2.6l-0.7,0.5c-1.2,1.1-2.9,2.6-2.9,2.6l-0.4,0.4l0.1,0.5c0.1,0.5,0.1,3.3,0.1,4.1c0,0,0.3,17.3,0,17.6l-2.5,0.1v5
	h12.1v-5l-2.5-0.1v-6.6h16V70l-2.5,0.1v5h12.1v-5c0,0-1.7-0.1-2.5-0.1C209.7,69.3,210,52.3,209.9,52.3"/>
<path class="st0" d="M282.8,73.6l0.1-0.1c1.8-1.1,2.4-1.5,2.6-1.6l0.5-0.3l-0.1-0.6c0-0.3,0-1.4,0-2.5V68v-0.6c0-0.4,0-0.6,0-0.7
	v-3.2c0-5.7-3.7-7-9.8-7.8l-5.8-0.5c-4.4-0.5-4.7-1.7-4.7-2.9v-2c0-1.1,0.7-2.3,5.9-2.3c5.7,0,8.5,1.4,8.5,2.5v2.1h5.9v-9.9h-5v1.1
	c0,0-0.1-0.2-1-0.6c-2.9-0.7-5.9-1.1-8.9-1.1c-3.9,0-7,0.7-9,2.1l-0.1,0.1l-2.7,1.6l-0.5,0.3l0.1,0.6c0,0.3,0,1.5,0,2.8v0.2
	c0,0.1,0,0.2,0,0.3V53c0,6.6,5.6,7.7,9.8,8.2l5.9,0.5c4.1,0.5,4.5,1.5,4.5,2.9v2.8c0,1-2.2,2.3-7.5,2.3c-5.7,0-6.9-1.4-6.9-2.5V65
	h-5.8v9.9h5v-1.1l1,0.7c1.9,0.9,5,1.1,8.1,1.1C277,75.7,280.8,75,282.8,73.6"/>
<path class="st0" d="M243.2,21.8l0.5,0.1c0.5,0.1,0.9,0.6,0.9,1.5v2.3h-4.1v-2.3c0-0.9,0.3-1.4,0.8-1.5l0.6-0.1v-1.1h-5.8v1.1
	l0.8,0.1c0.5,0.1,0.8,0.6,0.8,1.5v6.5c0,0.9-0.2,1.4-0.8,1.5l-0.8,0.1v1h5.8v-1l-0.6-0.1c-0.6-0.1-0.8-0.6-0.8-1.5v-2.6h4.1V30
	c0,0.9-0.2,1.4-0.9,1.5l-0.5,0.1v1h5.5v-1l-0.8-0.1c-0.6-0.1-0.8-0.6-0.8-1.5v-6.5c0-0.9,0.3-1.4,0.8-1.5l0.8-0.1v-1.1h-5.5V21.8"/>
<path class="st0" d="M263.5,24.2h0.1l0.8,2.9h-2L263.5,24.2 M258.1,31.4l-0.5,0.1v1h5.2v-1l-0.5-0.1c-0.5-0.1-0.9-1-0.5-2.1l0.2-0.6
	h3l0.2,0.6c0.4,1.4,0.1,1.9-0.5,2.1l-0.5,0.1v1h5.9v-1l-0.7-0.2c-0.4-0.1-0.9-0.7-1.3-2l-2.9-8.6h-2.3l-2.8,8
	C259.2,30.7,258.8,31.2,258.1,31.4"/>
<path class="st0" d="M286.5,21.2c-0.4,0-0.8-0.2-1.2-0.3c-0.6-0.2-1.3-0.4-2-0.4c-3.1,0-5.1,2.3-5.1,4.3V28c0,2.3,1.5,4.7,5.4,4.7
	c3.6,0,5-2,5-4h-2.5c0,2.1-0.9,2.8-2.4,2.8s-2.1-1.1-2.1-2.6v-5c0-1,0.3-2.1,1.8-2.1c1.9,0,2.7,2.1,2.7,4h2.5v-5.1h-1.7
	C286.9,21.2,286.8,21.3,286.5,21.2"/>
<path class="st0" d="M298.8,31.4l-0.8,0.1v1.1h6v-1l-0.8-0.1c-0.6-0.1-0.8-0.6-0.8-1.5v-6.5c0-0.9,0.3-1.4,0.8-1.5l0.8-0.1v-1.1h-6
	v1.1l0.8,0.1c0.5,0.1,0.8,0.6,0.8,1.5V30C299.5,30.8,299.3,31.4,298.8,31.4"/>
<path class="st0" d="M322.5,24.8v-4.1h-9.8v1.1l0.8,0.1c0.5,0.1,0.8,0.6,0.8,1.5v6.5c0,0.9-0.2,1.4-0.8,1.5l-0.8,0.1v1.1h9.8v-3.9
	H321v0.5c0,1.2-0.4,2.1-2.2,2.1c-1.3,0-1.6-0.5-1.6-1.3v-3.1h2.5v-1.3h-2.5v-2.5c0-0.9,0.4-1.3,1.6-1.3c1.1-0.1,2.1,0.7,2.2,1.8
	c0,0.1,0,0.2,0,0.3v0.8L322.5,24.8"/>
<path class="st0" d="M335,23.4l4.4,9.2h2.9v-9.2c0-0.9,0.3-1.4,0.8-1.5l0.8-0.1v-1.1h-4.6v1.1l0.6,0.1c0.5,0.1,0.8,0.6,0.8,1.5v4.1
	l0,0l-3.3-6.8h-5.6v1.1l0.8,0.1c0.5,0.1,0.8,0.6,0.8,1.5v6.5c0,0.9-0.2,1.4-0.8,1.5l-0.8,0.1v1.1h4.5v-1l-0.5-0.1
	c-0.6-0.1-0.8-0.6-0.8-1.5L335,23.4L335,23.4"/>
<path class="st0" d="M357.1,23.5c0-0.9,0-1.4,0.8-1.4h1.7c1.1,0,1.9,0.8,1.9,4.6c0,3.4-0.7,4.6-2.6,4.6h-1.1c-0.5,0-0.8-0.5-0.8-1.3
	L357.1,23.5 M353.4,31.5l-0.8,0.1v1h6.1c3.5,0,6.1-1.4,6.1-5.8s-2.2-6.1-5.2-6.1h-7v1.1l0.8,0.1c0.5,0.1,0.8,0.6,0.8,1.5v6.5
	C354.2,30.7,354,31.3,353.4,31.5"/>
<path class="st0" d="M376.4,27.1l1-2.9h0.1l0.8,2.9H376.4 M381.9,29.3l-2.9-8.6h-2.3l-2.8,8c-0.7,1.9-1.1,2.5-1.7,2.7l-0.5,0.1v1
	h5.2v-1l-0.5-0.1c-0.5-0.1-0.9-1-0.5-2.1l0.2-0.6h3l0.2,0.6c0.4,1.4,0.1,1.9-0.5,2.1l-0.5,0.1v1h6v-1l-0.7-0.2
	C382.8,31.2,382.4,30.7,381.9,29.3"/>
<rect x="331.1" y="49.3" class="st0" width="1.1" height="18.5"/>
<polyline class="st0" points="334.7,77.6 322.5,77.6 322.5,76.5 333.6,76.5 333.6,71.6 334.7,71.6 334.7,77.6 "/>
<polyline class="st0" points="311.6,77.6 299.4,77.6 299.4,76.5 310.5,76.5 310.5,71.6 311.6,71.6 311.6,77.6 "/>
<path class="st0" d="M309,55.9h-1.1v-1.2c0-3.6,0-4,1.3-4.7l0.3-0.1c2.7-1.5,10-0.4,10.3-0.4l-0.2,1.1c-2-0.3-7.6-0.9-9.6,0.2
	l-0.3,0.2c-0.7,0.4-0.7,0.4-0.7,3.7L309,55.9"/>
<polyline class="st0" points="309,68.5 307.9,68.5 307.9,65 320.5,65 320.5,66.1 309,66.1 309,68.5 "/>
<path class="st0" d="M322.3,57.4h-16v-4.6c0-2.7,0.8-3.6,1.9-4.2c1.8-0.8,3.8-1.1,5.8-1c2.6,0,5.3,0.3,6.5,1s1.9,1.6,1.9,4.2
	L322.3,57.4 M329.3,52.3c0-0.9,0.1-3.7,0.1-4l0.1-0.6l-0.4-0.4c0,0-1.6-1.6-2.9-2.7l-0.7-0.6c-2.4-1.7-6.7-2.6-11.7-2.6h-0.1
	c-5,0-8.6,0.9-11,2.6l-0.7,0.5c-1.2,1.1-2.9,2.6-2.9,2.6l-0.4,0.4l0.1,0.5c0.1,0.5,0.1,3.3,0.1,4.1c0,0,0.3,17.3,0,17.6l-2.5,0.1v5
	h12.1v-5l-2.5-0.1v-6.6h16V70l-2.5,0.1v5h12.2v-5c0,0-1.7-0.1-2.5-0.1C329.1,69.3,329.4,52.3,329.3,52.3"/>
<rect x="442" y="49.3" class="st0" width="1.1" height="18.5"/>
<polyline class="st0" points="445.5,77.6 433.4,77.6 433.4,76.5 444.4,76.5 444.4,71.6 445.5,71.6 445.5,77.6 "/>
<polyline class="st0" points="422.5,77.6 410.3,77.6 410.3,76.5 421.3,76.5 421.3,71.6 422.5,71.6 422.5,77.6 "/>
<path class="st0" d="M419.9,55.9h-1.1v-1.2c0-3.6,0-4,1.3-4.7l0.3-0.1c2.7-1.5,10-0.4,10.3-0.4l-0.2,1.1c-2-0.3-7.6-0.9-9.6,0.2
	l-0.3,0.2c-0.7,0.4-0.7,0.4-0.7,3.7L419.9,55.9"/>
<polyline class="st0" points="419.9,68.5 418.8,68.5 418.8,65 431.3,65 431.3,66.1 419.9,66.1 419.9,68.5 "/>
<path class="st0" d="M433.1,57.4h-16v-4.6c0-2.7,0.7-3.6,1.9-4.2c1.8-0.8,3.8-1.1,5.8-1c2.6,0,5.3,0.3,6.5,1s1.9,1.6,1.9,4.2
	L433.1,57.4 M440.2,52.3c0-0.9,0.1-3.7,0.1-4l0.1-0.6l-0.4-0.4c0,0-1.6-1.6-2.9-2.7l-0.7-0.6c-2.4-1.7-6.7-2.6-11.7-2.6h-0.1
	c-5,0-8.6,0.9-11,2.6l-0.7,0.5c-1.2,1.1-2.9,2.6-2.9,2.6l-0.4,0.4l0.1,0.5c0.1,0.5,0.1,3.3,0.1,4.1c0,0,0.3,17.3,0,17.6l-2.5,0.1v5
	h12.1v-5l-2.5-0.1v-6.6h16V70l-2.5,0.1v5h12.1v-5c0,0-1.7-0.1-2.5-0.1C439.9,69.3,440.2,52.3,440.2,52.3"/>
<rect x="428.1" y="95.6" class="st0" width="17.4" height="1.1"/>
<path class="st0" d="M208,94.1c-0.2-0.3-0.4-0.5-0.7-0.6s-0.6-0.2-0.9-0.2c-0.1,0-0.3,0-0.5,0c-0.1,0-0.3,0.1-0.4,0.1
	c-0.1,0.1-0.2,0.2-0.3,0.3c-0.1,0.1-0.1,0.3-0.1,0.5c0,0.1,0,0.3,0.1,0.4s0.2,0.2,0.3,0.3c0.1,0.1,0.3,0.2,0.5,0.2
	c0.2,0.1,0.4,0.1,0.6,0.2l1,0.4c0.3,0.1,0.6,0.3,0.9,0.5c0.3,0.2,0.5,0.5,0.7,0.8s0.3,0.7,0.3,1.1c0,0.5-0.1,0.9-0.3,1.4
	c-0.2,0.4-0.4,0.7-0.8,1c-0.3,0.3-0.7,0.4-1.1,0.6c-0.4,0.1-0.9,0.2-1.3,0.2c-0.7,0-1.3-0.1-1.9-0.3c-0.6-0.2-1.1-0.6-1.5-1l1.5-1.5
	c0.2,0.3,0.5,0.5,0.9,0.7c0.3,0.2,0.7,0.3,1.1,0.3c0.2,0,0.3,0,0.5,0c0.1,0,0.3-0.1,0.4-0.2c0.1-0.1,0.2-0.2,0.3-0.3
	c0.1-0.1,0.1-0.3,0.1-0.5s0-0.3-0.1-0.4s-0.2-0.3-0.4-0.3c-0.2-0.1-0.4-0.2-0.6-0.3l-0.8-0.3c-0.3-0.1-0.6-0.2-0.9-0.3
	c-0.3-0.1-0.5-0.3-0.8-0.5c-0.2-0.2-0.4-0.5-0.5-0.8s-0.2-0.7-0.2-1c0-0.5,0.1-0.9,0.3-1.3s0.5-0.7,0.8-0.9c0.3-0.2,0.7-0.4,1.1-0.5
	c0.4-0.1,0.9-0.2,1.3-0.2c0.5,0,1.1,0.1,1.6,0.3c0.5,0.2,1,0.5,1.4,0.8L208,94.1z"/>
<path class="st0" d="M217.2,93.6v7.3H215v-7.3h-2.6v-1.9h7.4v1.9H217.2z"/>
<path class="st0" d="M228.7,100.9l-0.7-1.8h-3.6l-0.7,1.8h-2.4l3.9-9.2h2.2l3.8,9.2H228.7z M226.2,94.2l-1.2,3.2h2.3L226.2,94.2z"/>
<path class="st0" d="M238.9,100.9l-2-3.7h-0.8v3.7H234v-9.2h3.5c0.4,0,0.9,0,1.3,0.1c0.4,0.1,0.8,0.2,1.1,0.5
	c0.3,0.2,0.6,0.5,0.8,0.9s0.3,0.9,0.3,1.3c0,0.6-0.2,1.1-0.5,1.6c-0.4,0.4-0.9,0.8-1.4,0.9l2.4,3.9
	C241.5,100.9,238.9,100.9,238.9,100.9z M238.8,94.5c0-0.2,0-0.4-0.1-0.5s-0.2-0.2-0.4-0.3c-0.1-0.1-0.3-0.1-0.4-0.1
	c-0.2,0-0.3,0-0.5,0h-1.2v2.1h1.1c0.2,0,0.4,0,0.6,0c0.2,0,0.4-0.1,0.5-0.2c0.2-0.1,0.3-0.2,0.4-0.3C238.8,95,238.9,94.8,238.8,94.5
	L238.8,94.5z"/>
<path class="st0" d="M252.2,98.2c0,0.4-0.1,0.9-0.3,1.3c-0.2,0.3-0.5,0.6-0.8,0.8c-0.3,0.2-0.7,0.4-1.1,0.5
	c-0.4,0.1-0.9,0.1-1.3,0.1H245v-9.2h3.7c0.4,0,0.7,0,1.1,0.1c0.4,0.1,0.7,0.2,1,0.4c0.3,0.2,0.6,0.4,0.7,0.7
	c0.2,0.4,0.3,0.8,0.3,1.2c0,0.5-0.1,0.9-0.4,1.3c-0.3,0.3-0.7,0.6-1.1,0.7l0,0c0.3,0,0.5,0.1,0.7,0.2s0.4,0.3,0.6,0.5
	c0.2,0.2,0.3,0.4,0.4,0.6C252.2,97.7,252.3,98,252.2,98.2z M249.7,94.4c0-0.3-0.1-0.5-0.4-0.7c-0.3-0.2-0.7-0.2-1.1-0.2h-1.1v1.9
	h1.2c0.4,0,0.7-0.1,1-0.2C249.6,94.9,249.7,94.7,249.7,94.4L249.7,94.4z M250,98c0-0.3-0.1-0.6-0.4-0.8c-0.4-0.2-0.7-0.2-1.1-0.2
	h-1.2v2.1h1.2c0.2,0,0.4,0,0.5,0c0.2,0,0.3-0.1,0.5-0.2s0.3-0.2,0.4-0.4C250,98.4,250,98.2,250,98L250,98z"/>
<path class="st0" d="M263.5,99c-0.2,0.4-0.5,0.8-0.8,1.2c-0.4,0.3-0.8,0.6-1.3,0.8c-0.5,0.2-1.1,0.3-1.6,0.3c-0.6,0-1.1-0.1-1.6-0.3
	c-0.5-0.2-0.9-0.4-1.2-0.8c-0.3-0.3-0.6-0.7-0.8-1.2c-0.2-0.5-0.3-1-0.3-1.5v-5.7h2.2v5.5c0,0.2,0,0.5,0.1,0.7s0.2,0.4,0.3,0.6
	c0.1,0.2,0.3,0.3,0.5,0.4c0.3,0.1,0.5,0.2,0.8,0.1c0.3,0,0.5,0,0.8-0.1c0.2-0.1,0.4-0.2,0.5-0.4c0.1-0.2,0.2-0.4,0.3-0.6
	c0.1-0.2,0.1-0.5,0.1-0.7v-5.5h2.2v5.7C263.7,98,263.6,98.5,263.5,99z"/>
<path class="st0" d="M274.3,100.8c-0.7,0.3-1.4,0.4-2.1,0.4s-1.4-0.1-2-0.4c-0.6-0.2-1.1-0.6-1.6-1c-0.4-0.4-0.8-1-1-1.5
	c-0.3-0.6-0.4-1.3-0.4-2s0.1-1.4,0.4-2c0.2-0.6,0.6-1.1,1.1-1.5s1-0.8,1.6-1s1.3-0.3,2-0.3s1.3,0.1,1.9,0.3c0.6,0.2,1.1,0.5,1.5,1
	l-1.5,1.5c-0.2-0.3-0.5-0.5-0.8-0.6s-0.7-0.2-1-0.2c-0.4,0-0.7,0.1-1.1,0.2c-0.3,0.1-0.6,0.3-0.8,0.6c-0.2,0.3-0.4,0.6-0.5,0.9
	c-0.1,0.4-0.2,0.7-0.2,1.1s0.1,0.8,0.2,1.1c0.1,0.3,0.3,0.6,0.5,0.9c0.2,0.2,0.5,0.4,0.8,0.6c0.3,0.1,0.7,0.2,1.1,0.2
	s0.8-0.1,1.1-0.3c0.3-0.2,0.6-0.4,0.8-0.7l1.5,1.5C275.4,100.1,274.9,100.5,274.3,100.8z"/>
<path class="st0" d="M284.9,100.9l-3.4-4.2l0,0v4.2h-2.2v-9.2h2.2v3.8l0,0l3.3-3.8h2.8l-4,4.2l4.2,5H284.9z"/>
<path class="st0" d="M295.8,94.1c-0.2-0.3-0.5-0.5-0.8-0.6s-0.6-0.2-0.9-0.2c-0.1,0-0.3,0-0.4,0s-0.3,0.1-0.4,0.1
	c-0.1,0.1-0.2,0.2-0.3,0.3c-0.1,0.1-0.1,0.3-0.1,0.5c0,0.1,0,0.3,0.1,0.4s0.2,0.2,0.3,0.3c0.1,0.1,0.3,0.2,0.5,0.2
	c0.2,0.1,0.4,0.1,0.6,0.2l1,0.4c0.3,0.1,0.6,0.3,0.9,0.5s0.5,0.5,0.7,0.8c0.2,0.4,0.3,0.7,0.3,1.1c0,0.5-0.1,0.9-0.3,1.4
	c-0.2,0.4-0.4,0.7-0.8,1c-0.3,0.3-0.7,0.4-1.1,0.6c-0.4,0.1-0.9,0.2-1.3,0.2c-0.7,0-1.3-0.1-1.9-0.3c-0.6-0.2-1.1-0.6-1.5-1l1.5-1.5
	c0.2,0.3,0.5,0.5,0.9,0.7c0.3,0.2,0.7,0.3,1.1,0.3c0.2,0,0.3,0,0.5,0c0.1,0,0.3-0.1,0.4-0.2s0.2-0.2,0.3-0.3
	c0.1-0.1,0.1-0.3,0.1-0.5s0-0.3-0.1-0.4s-0.2-0.3-0.4-0.3c-0.2-0.1-0.4-0.2-0.6-0.3L293,97c-0.3-0.1-0.6-0.2-0.9-0.3
	c-0.3-0.1-0.5-0.3-0.8-0.5c-0.2-0.2-0.4-0.5-0.5-0.8s-0.2-0.7-0.2-1c0-0.5,0.1-0.9,0.3-1.3c0.2-0.4,0.5-0.7,0.8-0.9
	c0.3-0.2,0.7-0.4,1.1-0.5s0.8-0.2,1.3-0.2s1.1,0.1,1.6,0.3c0.5,0.2,1,0.5,1.4,0.8L295.8,94.1z"/>
<path class="st0" d="M313.7,100.8c-0.6,0.3-1.4,0.4-2.1,0.4s-1.4-0.1-2-0.4c-0.6-0.2-1.1-0.6-1.6-1c-0.4-0.4-0.8-1-1-1.5
	c-0.3-0.6-0.4-1.3-0.4-2s0.1-1.4,0.4-2c0.2-0.6,0.6-1.1,1.1-1.5s1-0.8,1.6-1s1.3-0.3,2-0.3s1.3,0.1,1.9,0.3c0.6,0.2,1.1,0.5,1.5,1
	l-1.5,1.5c-0.2-0.3-0.5-0.5-0.8-0.6s-0.7-0.2-1-0.2c-0.4,0-0.7,0.1-1.1,0.2c-0.3,0.1-0.6,0.3-0.8,0.6c-0.2,0.3-0.4,0.6-0.5,0.9
	c-0.1,0.4-0.2,0.7-0.2,1.1s0.1,0.8,0.2,1.1c0.1,0.3,0.3,0.6,0.5,0.9c0.2,0.2,0.5,0.4,0.8,0.6c0.3,0.1,0.7,0.2,1,0.2
	c0.4,0,0.8-0.1,1.2-0.3c0.3-0.2,0.6-0.4,0.8-0.7l1.5,1.5C314.8,100.1,314.3,100.5,313.7,100.8z"/>
<path class="st0" d="M327.8,96.3c0,0.7-0.1,1.4-0.4,2c-0.2,0.6-0.6,1.1-1,1.5c-0.5,0.4-1,0.8-1.6,1s-1.3,0.4-2,0.4s-1.4-0.1-2-0.4
	c-0.6-0.2-1.1-0.6-1.6-1s-0.8-1-1-1.5c-0.3-0.6-0.4-1.3-0.4-2s0.1-1.4,0.4-2c0.2-0.6,0.6-1.1,1-1.5c0.5-0.4,1-0.8,1.6-1
	s1.3-0.3,2-0.3s1.4,0.1,2,0.3c0.6,0.2,1.1,0.6,1.6,1c0.4,0.4,0.8,0.9,1,1.5C327.7,94.9,327.8,95.6,327.8,96.3z M325.4,96.3
	c0-0.4-0.1-0.8-0.2-1.1c-0.1-0.3-0.3-0.6-0.5-0.9s-0.5-0.5-0.8-0.6s-0.7-0.2-1.1-0.2s-0.7,0.1-1.1,0.2c-0.3,0.1-0.6,0.3-0.8,0.6
	c-0.2,0.3-0.4,0.6-0.5,0.9c-0.1,0.4-0.2,0.7-0.2,1.1s0.1,0.8,0.2,1.1c0.1,0.3,0.3,0.6,0.5,0.9s0.5,0.5,0.8,0.6s0.7,0.2,1.1,0.2
	s0.7-0.1,1.1-0.2c0.3-0.1,0.6-0.3,0.8-0.6c0.2-0.3,0.4-0.6,0.5-0.9S325.4,96.7,325.4,96.3z"/>
<path class="st0" d="M333.6,93.6v1.9h3.6v1.8h-3.6v3.6h-2.2v-9.2h6.1v1.9L333.6,93.6z"/>
<path class="st0" d="M343.7,93.6v1.9h3.6v1.8h-3.6v3.6h-2.2v-9.2h6.1v1.9L343.7,93.6z"/>
<path class="st0" d="M351.6,100.9v-9.2h6.2v1.9h-4v1.7h3.8v1.8h-3.8V99h4.3v1.9H351.6z"/>
<path class="st0" d="M362.1,100.9v-9.2h6.2v1.9h-4v1.7h3.8v1.8h-3.8V99h4.3v1.9H362.1z"/>
<path class="st0" d="M380.6,93.6v1.9h3.6v1.8h-3.6v3.6h-2.2v-9.2h6.1v1.9L380.6,93.6z"/>
<path class="st0" d="M394,100.9l-0.7-1.8h-3.6l-0.7,1.8h-2.4l3.9-9.2h2.1l3.8,9.2H394z M391.6,94.2l-1.2,3.2h2.3L391.6,94.2z"/>
<path class="st0" d="M404.4,100.9l-2-3.7h-0.8v3.7h-2.2v-9.2h3.5c0.4,0,0.9,0,1.3,0.1s0.8,0.2,1.1,0.5c0.3,0.2,0.6,0.5,0.8,0.9
	c0.2,0.4,0.3,0.9,0.3,1.3c0,0.6-0.2,1.1-0.5,1.6c-0.4,0.4-0.9,0.8-1.4,0.9l2.4,3.9C406.9,100.9,404.4,100.9,404.4,100.9z
	 M404.3,94.5c0-0.2,0-0.4-0.1-0.5s-0.2-0.2-0.4-0.3c-0.1-0.1-0.3-0.1-0.5-0.1s-0.3,0-0.5,0h-1.2v2.1h1.1c0.2,0,0.4,0,0.6,0
	s0.4-0.1,0.5-0.2c0.2-0.1,0.3-0.2,0.4-0.3C404.3,95,404.3,94.8,404.3,94.5L404.3,94.5z"/>
<path class="st0" d="M418.9,100.9v-6.5l0,0l-2.4,6.5H415l-2.3-6.5l0,0l0.1,6.5h-2.1v-9.2h3.2l2.1,5.9l0,0l2-5.9h3.2v9.2H418.9z"/>
<rect x="177.4" y="95.6" class="st0" width="17.4" height="1.1"/>
<g>
	<path class="st0" d="M451.8,77.6h-0.5v-3.4H450v-0.5h3.1v0.5h-1.3L451.8,77.6L451.8,77.6z"/>
	<path class="st0" d="M455.6,76.7L455.6,76.7l1.2-3h0.9v3.9h-0.5v-3.3l0,0l-1.3,3.3h-0.3l-1.3-3.3l0,0v3.3h-0.5v-3.9h0.9L455.6,76.7
		z"/>
</g>
<g>
	<g>
		<g>
			<path class="st1" d="M11.7,69.6l-1-6l0,0l-0.4,6.3l-1.4,0.2l-2.5-5.7l0,0l1.1,6l-1.8,0.3L4.2,62l2.5-0.4l2.4,5.4l0,0L9.5,61
				l2.6-0.5l1.5,8.7L11.7,69.6z"/>
			<path class="st1" d="M19.1,68.3l-0.6-1.5l-2,0.3l-0.1,1.7l-2,0.3L15,60l2.5-0.4l3.6,8.4L19.1,68.3z M16.6,61.7L16.6,61.7
				l-0.1,3.9l1.5-0.3L16.6,61.7z"/>
			<path class="st1" d="M24.4,60.6c-0.4-0.3-0.8-0.4-1.2-0.3c-0.4,0.1-0.8,0.4-0.7,1.1c0.1,0.5,0.5,0.7,1.3,0.9
				c0.9,0.3,2,0.7,2.3,2.2c0.3,1.9-0.8,3.1-2.2,3.3c-1,0.2-2-0.1-2.7-0.5l0.7-1.7c0.4,0.3,1,0.5,1.5,0.4c0.5-0.1,0.8-0.5,0.7-1
				c-0.1-0.6-0.6-0.8-1.4-1c-1-0.3-1.9-0.8-2.2-2.2c-0.3-1.9,0.9-3,2.2-3.2c0.9-0.2,1.8,0,2.4,0.5L24.4,60.6z"/>
			<path class="st1" d="M29,59.3l1.2,7.1l-1.9,0.3l-1.2-7.1l-1.6,0.3l-0.3-1.7l5.1-0.9l0.3,1.7L29,59.3z"/>
			<path class="st1" d="M32.7,65.9l-1.5-8.7l4.2-0.7l0.3,1.7l-2.3,0.4l0.3,1.7l2.1-0.4l0.3,1.6l-2.1,0.4l0.3,1.9l2.5-0.4l0.3,1.8
				L32.7,65.9z"/>
			<path class="st1" d="M41.8,64.3L40,61l-0.6,0.1l0.6,3.5L38.2,65l-1.5-8.7l2.8-0.5c1.7-0.3,2.8,0.4,3.1,2.2
				c0.2,1.3-0.3,2.1-0.8,2.4l2.2,3.6L41.8,64.3z M39.5,57.4l-0.6,0.1l0.4,2.2l0.6-0.1c0.6-0.1,1-0.5,0.9-1.3
				C40.5,57.5,39.9,57.4,39.5,57.4z"/>
			<path class="st1" d="M47.3,63.3l-1.5-8.7l2-0.4l1.2,6.9l2.3-0.4l0.3,1.8L47.3,63.3z"/>
			<path class="st1" d="M55.2,62.2c-2.1,0.4-3.7-1.3-4.2-4c-0.5-2.8,0.5-4.8,2.5-5.2c2.1-0.4,3.7,1.2,4.2,4
				C58.2,59.8,57.3,61.8,55.2,62.2z M53.9,54.9c-0.9,0.2-1.1,1.4-0.9,2.9c0.3,1.5,0.9,2.6,1.8,2.5c0.9-0.2,1.1-1.4,0.9-2.9
				C55.5,55.8,54.8,54.7,53.9,54.9z"/>
			<path class="st1" d="M62.9,60.8c-2.2,0.4-3.8-1.2-4.3-3.9c-0.5-2.7,0.5-4.8,2.6-5.2c1.2-0.2,2.1,0.1,2.6,0.6L63,53.9
				c-0.4-0.4-0.8-0.5-1.3-0.4c-1.1,0.2-1.4,1.5-1.1,3c0.3,1.5,0.9,2.6,2,2.5c0.3,0,0.5-0.2,0.7-0.3L62.9,57L62,57.2l-0.3-1.7
				l2.7-0.5l0.8,4.7C64.7,60.2,64,60.6,62.9,60.8z"/>
			<path class="st1" d="M69.7,59.6c-2.1,0.4-3.7-1.3-4.2-4c-0.5-2.8,0.4-4.8,2.5-5.2c2.1-0.4,3.7,1.2,4.2,4
				C72.7,57.2,71.7,59.3,69.7,59.6z M68.4,52.4c-0.9,0.2-1.1,1.4-0.9,2.9c0.3,1.5,0.9,2.6,1.8,2.5c0.9-0.2,1.1-1.4,0.9-2.9
				C69.9,53.3,69.3,52.2,68.4,52.4z"/>
			<path class="st1" d="M79,57.8l-2.1,0.4l1.3-7.4l-3,0.5l-0.3-1.7l5.1-0.9l0.3,1.5L79,57.8z"/>
			<path class="st1" d="M83.5,57.4l-1.1,0l0.7-10l1.1,0.1L83.5,57.4z"/>
			<path class="st1" d="M89.9,52.1l-1.3,2.2l2.8-0.5l0.3,1.7l-5.2,0.9l-0.3-1.8l2.1-3.5c0.3-0.6,0.5-1.1,0.4-1.6
				c-0.1-0.5-0.4-0.9-0.9-0.8c-0.5,0.1-0.7,0.5-0.7,1.3l-1.9,0.2c-0.1-1.8,0.8-2.9,2.3-3.1c1.6-0.3,2.8,0.6,3.1,2.1
				C90.9,50.3,90.4,51.3,89.9,52.1z"/>
			<path class="st1" d="M95.7,55c-2.4,0.4-3.3-2.1-3.7-4c-0.3-2-0.3-4.6,2.1-5.1c2.4-0.4,3.3,2.1,3.7,4C98.1,51.9,98.1,54.6,95.7,55
				z M94.4,47.6c-0.8,0.1-0.6,1.8-0.4,3c0.2,1.2,0.6,2.8,1.4,2.7c0.8-0.1,0.6-1.8,0.4-3C95.6,49.1,95.2,47.5,94.4,47.6z"/>
			<path class="st1" d="M101.7,53.8l-1.1-6.4l-1.1,1.2l-1.1-1.4l2.1-2.2l1.7-0.3l1.5,8.7L101.7,53.8z"/>
			<path class="st1" d="M110.3,50.4l0.3,1.8l-1.7,0.3l-0.3-1.8l-3.2,0.6l-0.3-1.7l1.6-5.8l2.4-0.4l0.9,5.4l0.9-0.2l0.3,1.6
				L110.3,50.4z M107.7,45.7L107.7,45.7l-0.9,3.7l1.5-0.3L107.7,45.7z"/>
		</g>
		<g>
			<g>
				<ellipse class="st2" cx="57.7" cy="57.1" rx="57.1" ry="57.1"/>
				<path class="st3" d="M63.4,24.7c-0.5-0.1-2.9-0.5-5.7-0.5c-2.8,0-5.2,0.4-5.7,0.5c-0.3,0-0.4-0.2-0.2-0.4
					c0.2-0.1,5.9-4.5,5.9-4.5s5.7,4.4,5.9,4.5C63.8,24.4,63.7,24.7,63.4,24.7z M53.5,52.9c0,0-0.3,0.1-0.4,0.4c1.2,0.9,2,3,4.5,3
					c2.5,0,3.3-2.1,4.5-3c-0.1-0.3-0.4-0.4-0.4-0.4s-1.6,0.4-4.1,0.4S53.5,52.9,53.5,52.9z M57.7,49.4c-0.7,0-0.8-0.3-1.3-0.3
					c-0.4,0-1.3,0.4-1.5,0.7c0,0.2,0.1,0.3,0.2,0.4c1,0.2,1.5,0.7,2.6,0.7c1.2,0,1.6-0.6,2.6-0.7c0.1-0.1,0.2-0.3,0.2-0.4
					c-0.2-0.3-1.1-0.7-1.5-0.7C58.5,49.1,58.4,49.4,57.7,49.4z M114.7,60.2c-0.1,1.4-0.2,2.7-0.4,4.1c-6.5,1.1-8.8-4.7-15.4-4.4
					c0.4,1.4,0.7,2.8,1,4.3c5.5,0,7.7,5.1,13.7,4.3c-0.3,1.6-0.7,3.1-1.1,4.6c-4.8,0.5-6.5-4.3-12-4.2c0,0.8,0.1,1.6,0.1,2.4
					c0,0.4,0,0.9,0,1.3c4.7-0.1,6.3,4.3,10.8,4.1c-0.6,1.5-1.2,3-1.9,4.5c-3.2-0.2-4.4-4.3-9.3-4c-0.1,1.1-0.3,2.1-0.6,3.2
					c4.3-0.3,5.2,3.6,8.3,4c-0.8,1.4-1.6,2.8-2.5,4.2c-1.8-1-3.4-3.9-6.8-4.1c0.3-1.1,0.7-2.2,0.9-3.3c-3.1,0-6.6-1.2-9.5-3.9
					c0.9-5.4-7.5-10.9-7.5-14.9c0-4.3,2.2-6.7,2.2-12.5c0-4.3-2.1-9-5.2-12.2c-0.6-0.6-1.2-1.1-2-1.6c2.9,3.6,5.1,7.8,5.1,12.8
					c0,5.5-2.5,8.4-2.5,13.4c0,5,7.4,9.4,7.4,14.6c0,2-0.7,4-2.8,8c3.3,3.3,7.6,5.1,10.4,5.1c0.9,0,1.4-0.3,1.7-1
					c0.3-0.6,0.5-1.2,0.8-1.9c3,0.1,4.4,2.8,6,3.9c-0.9,1.2-1.9,2.4-2.9,3.5c-1.1-1.2-2.6-3.3-4.8-3.9c-0.4,0.8-0.8,1.5-1.2,2.2
					c1.9,0.5,3.2,2.4,4.2,3.7c-1.1,1.1-2.2,2.2-3.4,3.2c-0.7-1.1-1.9-2.6-3.1-3.3c-0.5,0.6-1,1.3-1.5,1.9c1.1,0.7,2,2,2.7,3.1
					c-1.3,1.1-2.7,2.1-4.2,3.1c-0.7-5.8-8.6-9.8-6.5-16.5c-0.7,1.2-1.5,2.7-1.5,4.5c0,4.9,5.2,8.7,5.6,13.6
					c-1.1,0.6-2.2,1.3-3.3,1.8c-0.2-5.3-5.7-11.1-5.7-15.5c0-4.9,6.4-9.8,6.4-15.5c0-5.8-7.4-9.7-7.4-14.8c0-5,3.1-8,3.1-14.4
					c0-4.7-2.3-9.5-5.7-12.6c-0.6-0.5-1.2-1-2-1.3c3.3,3.9,5.2,7.5,5.2,12.9c0,6.1-3.6,9.5-3.6,15.4c0,6,7.2,9.3,7.2,14.8
					c0,5.6-6.7,10.2-6.7,15.9c0,5.2,5.9,10.4,6,16.5c-1.3,0.6-2.6,1.1-4,1.5c0.8-6.2-5.9-12.6-5.9-17.7c0-5.6,7-10.3,7-16.3
					c0-6-7.1-8.8-7.1-14.9s4.3-9.5,4.3-16.3c0-5.3-2.6-10-6.4-13c-0.1-0.1-0.2-0.1-0.2-0.2c-0.4-0.3-0.7,0.1-0.4,0.4
					c2.7,3.4,4.1,6.8,4.1,11.8c0,6.2-5,11.3-5,17.3c0,7.1,6.7,9.1,6.7,15c0,5.8-7.2,10.5-7.2,16.7c0,5.7,6.8,12.1,5.6,18.7
					c-1.4,0.4-2.8,0.7-4.2,0.9c1.3-8.2-5.4-14.2-5.4-19.5c0-5.8,7.5-11,7.5-16.7c0-5.4-5.3-7.1-6.1-12.6c-0.1-0.7-0.7-1.3-1.5-1.2
					c-1.1,0.2-2.5,0.9-4.7,0.9c-2.2,0-3.6-0.7-4.7-0.9c-0.8-0.1-1.4,0.4-1.5,1.2c-0.7,5.5-6.1,7.3-6.1,12.6c0,5.7,7.5,10.9,7.5,16.7
					c0,5.4-6.7,11.3-5.4,19.5c-1.4-0.3-2.8-0.6-4.2-0.9c-1.2-6.6,5.6-13,5.6-18.7c0-6.2-7.2-10.8-7.2-16.7c0-5.8,6.7-7.9,6.7-15
					c0-6-5-11.1-5-17.3c0-5,1.4-8.5,4.1-11.8c0.3-0.3,0-0.6-0.4-0.4c-0.1,0.1-0.2,0.1-0.2,0.2c-3.8,2.9-6.4,7.7-6.4,13
					c0,6.8,4.4,10.2,4.4,16.3s-7.1,8.9-7.1,14.9c0,6,7,10.8,7,16.3c0,5.1-6.7,11.5-5.9,17.7c-1.3-0.5-2.7-1-4-1.5
					c0.1-6.2,6-11.3,6-16.5c0-5.7-6.7-10.4-6.7-15.9c0-5.6,7.2-8.9,7.2-14.8c0-6-3.6-9.3-3.6-15.4c0-5.4,1.9-9,5.2-12.9
					c-0.7,0.4-1.3,0.8-2,1.3c-3.5,3.1-5.7,7.9-5.7,12.6c0,6.5,3.1,9.4,3.1,14.4c0,5.1-7.4,9-7.4,14.8c0,5.7,6.4,10.6,6.4,15.5
					c0,4.4-5.5,10.2-5.7,15.5c-1.1-0.6-2.2-1.2-3.3-1.8c0.4-4.8,5.6-8.7,5.6-13.6c0-1.8-0.8-3.3-1.5-4.5c2.1,6.7-5.8,10.7-6.5,16.5
					c-1.4-1-2.8-2-4.2-3.1c0.6-1.1,1.6-2.4,2.7-3.1c-0.5-0.6-1-1.2-1.5-1.9c-1.3,0.8-2.4,2.2-3.1,3.3c-1.2-1-2.3-2.1-3.4-3.2
					c1-1.3,2.3-3.2,4.2-3.7c-0.4-0.7-0.9-1.5-1.2-2.2c-2.2,0.6-3.7,2.7-4.8,3.9c-1-1.1-2-2.3-2.9-3.5c1.7-1.1,3-3.8,6-3.9
					c0.3,0.6,0.5,1.2,0.8,1.9c0.3,0.7,0.8,1,1.7,1c2.8,0,7.1-1.8,10.4-5.1C28.7,81,28,79,28,76.9c0-5.2,7.4-9.6,7.4-14.6
					c0-5-2.5-7.9-2.5-13.4c0-4.9,2.2-9.2,5.1-12.8c-0.7,0.5-1.3,1-2,1.6c-3.2,3.2-5.2,7.9-5.2,12.2c0,5.8,2.2,8.2,2.2,12.5
					c0,4-8.4,9.5-7.5,14.9c-2.9,2.7-6.4,3.9-9.5,3.9c0.3,1.1,0.6,2.2,0.9,3.3c-3.4,0.2-5,3.1-6.8,4.1c-0.9-1.4-1.7-2.7-2.5-4.2
					c3.1-0.3,4-4.3,8.3-4c-0.2-1-0.4-2.1-0.6-3.2c-4.9-0.3-6.1,3.8-9.3,4c-0.7-1.5-1.3-3-1.9-4.5c4.5,0.2,6.1-4.2,10.8-4.1
					c0-0.4,0-0.9,0-1.3c0-0.8,0-1.6,0.1-2.4c-5.6-0.1-7.2,4.6-12,4.2c-0.4-1.5-0.8-3.1-1.1-4.6c6.1,0.7,8.3-4.4,13.7-4.3
					c0.2-1.5,0.6-2.9,1-4.3c-6.6-0.3-8.9,5.5-15.4,4.4c-0.2-1.3-0.3-2.7-0.4-4.1C8.2,61,11,54.9,17.9,55.6c0.6-1.6,1.4-3.2,2.2-4.7
					c-8.6-1.5-11.5,5.7-19.5,4.6C1.5,24.7,26.7,0,57.7,0c31,0,56.2,24.7,57,55.4c-8,1.1-10.9-6.1-19.5-4.6c0.8,1.5,1.6,3.1,2.2,4.7
					C104.3,54.9,107.2,61,114.7,60.2z M33.2,36.3c-4.2-1.7-9.3-1.3-13.6,1.5c-0.7-4-2.9-7.6-6-9.8c-0.4-0.3-0.9,0-0.8,0.5
					c0.7,8.5-4.3,16-10.5,22.5c6.3,1.9,11.7-6.2,19.9-3.4C25.1,43.1,28.8,39.3,33.2,36.3z M57.7,31.1c-5.3,0-9.7,3-10.9,6.9
					c-0.1,0.3,0,0.5,0.4,0.3c1-0.4,2-0.6,3.2-0.6c2.2,0,4.1,0.8,5.2,2.2c0.5,1.6,0.5,4,0,5.4c-0.9-0.2-1.2-0.9-2.1-0.9
					c-0.9,0-1.5,0.6-3,0.6c-1.5,0-1.6-0.7-2.6-0.7c-1.1,0-1.3,1.2-1.3,2.5c0,5.9,5.4,14,11.2,14c5.8,0,11.2-8.1,11.2-14
					c0-1.3-0.3-2.5-1.5-2.6c-0.6,0.4-1.1,0.8-2.5,0.8c-1.5,0-1.9-0.6-2.7-0.6c-1,0-0.9,2.2-2.2,2.3c-0.8-2-0.9-4.6-0.2-6.8
					c1.1-1.4,3-2.2,5.2-2.2c1.2,0,2.3,0.2,3.2,0.6c0.3,0.2,0.5,0,0.4-0.3C67.4,34.1,63,31.1,57.7,31.1z M66.1,39.6
					c-1.3,0-2.8,0.4-3.7,1.4c-0.1,0.3-0.1,0.7,0,1c2.3-0.8,4.3-0.8,5.3,0.3c0.5-0.5,0.7-0.9,0.7-1.4C68.5,40.1,67.7,39.6,66.1,39.6z
					 M47.6,42.3c1.1-1.1,3.5-1.1,5.9-0.2c0.1-1.2-2.1-2.5-4.2-2.5c-1.6,0-2.4,0.5-2.4,1.3C46.9,41.4,47.1,41.8,47.6,42.3z
					 M84.1,22.3c-4.2,0.3-7.8,1.7-10.8,4.1c1.3-3.5,2.8-6.6,4.8-9.6c-5.3,0.6-9.8,2.5-13,5.8L62.6,16l5.6-5l-7.6-0.5l-3-7l-3,7
					L47.1,11l5.6,5l-2.5,6.7c-3.3-3.3-7.7-5.3-13-5.8c2,3,3.6,6.1,4.8,9.6c-2.9-2.4-6.6-3.8-10.8-4.1c2.5,3.2,4.7,6.7,6.4,10.4
					c0.2,0.4,0.6,0.6,1,0.3c5.7-2.8,12.2-4.4,19-4.4c6.8,0,13.3,1.6,19,4.4c0.4,0.2,0.8,0.1,1-0.3C79.4,28.9,81.6,25.5,84.1,22.3z
					 M93.2,47.5c8.2-2.8,13.6,5.3,19.9,3.4C107,44.4,102,37,102.7,28.4c0-0.5-0.4-0.8-0.8-0.5c-3.1,2.2-5.3,5.8-6,9.8
					c-4.3-2.8-9.4-3.2-13.6-1.5C86.5,39.3,90.3,43.1,93.2,47.5z"/>
			</g>
		</g>
	</g>
	<g>
		<path class="st3" d="M92.2,115.5h-0.9V110h-2v-0.8h4.9v0.8h-2V115.5z"/>
		<path class="st3" d="M98.3,114.1L98.3,114.1l1.9-4.8h1.4v6.3h-0.9v-5.3h0l-2.1,5.3H98l-2.1-5.3h0v5.3h-0.9v-6.3h1.4L98.3,114.1z"
			/>
	</g>
</g>
</svg>
