<?xml version="1.0" encoding="utf-8"?>
<!-- Generator: Adobe Illustrator 21.0.2, SVG Export Plug-In . SVG Version: 6.00 Build 0)  -->
<svg version="1.1" id="Layer_1" xmlns="http://www.w3.org/2000/svg" xmlns:xlink="http://www.w3.org/1999/xlink" x="0px" y="0px"
	 viewBox="0 0 339 218" style="enable-background:new 0 0 339 218;" xml:space="preserve">
<style type="text/css">
	.st0{fill:#D7D0C4;}
	.st1{fill:#FFFFFF;}
	.st2{fill:none;}
	.st3{fill:#006241;}
</style>
<title>logo</title>
<path class="st0" d="M110.4,18.9c-0.8-1.5-2.4-3.2-3.8-2.4c-1,0.6-0.8,1.5-0.5,2.3l2.1,3.9c0.6,1.1,1.5,1.7,2.5,1.3s1.4-1.5,0.6-3.1
	l1.8-0.9c0.8,1.6,0.7,3.7-1.9,5c-1.8,1.2-4.2,0.7-5.4-1.1c-0.1-0.2-0.2-0.3-0.3-0.5l-1.3-2.3c-0.9-2,0-4.3,1.9-5.3
	c0.5-0.3,1-0.4,1.6-0.5c0.3,0,0.7-0.1,1-0.2c0.2-0.1,0.2-0.2,0-0.6l1.1-0.6l2.3,4.4L110.4,18.9z"/>
<path class="st0" d="M127.1,13.7c0.7,2-0.4,4.2-2.4,5h-0.1c-1.8,0.9-4,0.2-5-1.6c-0.1-0.1-0.1-0.3-0.2-0.4l-1.1-3
	c-0.7-2,0.4-4.2,2.4-4.9h0.1c2.3-0.8,4.4,0.1,5.1,2.1L127.1,13.7z M122.1,16.1c0.5,1.1,1,2.1,2.1,1.6s0.9-1.6,0.6-2.6l-1.5-4.1
	c-0.3-0.9-0.9-1.6-1.9-1.3s-1,1.4-0.7,2.2L122.1,16.1z"/>
<path class="st0" d="M139.4,6.8c-0.2-0.4-0.5-0.7-0.9-1c-0.7-0.4-1.5-0.5-2.3-0.3c-0.8,0.1-1.4,0.9-1.3,1.7l0,0c0.2,0.9,0.9,1,2.5,1
	c2.6,0,4,0.6,4.4,2.5s-0.8,3.4-2.7,3.9c-0.6,0.2-1.3,0.2-1.9,0c-0.4-0.1-0.8-0.1-1.1,0s-0.5,0.5-0.6,0.8l-0.9,0.2l-0.8-3.4l0.9-0.2
	c0.2,0.4,0.5,0.8,0.9,1c0.9,0.7,2,0.8,3.1,0.5c0.7-0.2,1.2-0.9,1.1-1.6c-0.2-0.9-1.4-1-2.1-1.1l-1.6-0.1c-1.8-0.2-2.7-0.9-3.2-2.5
	s0.9-3.1,2.7-3.6c0.5-0.1,1.1-0.2,1.6-0.2h0.9c0.2,0,0.3-0.2,0.5-0.3l0.9-0.2l0.7,3L139.4,6.8z"/>
<path class="st0" d="M147,2l8.4-1.1L156,5l-1.1,0.1l-0.1-0.9c-0.1-0.9-0.6-2-1.4-1.8s-0.7,1-0.6,1.7l0.7,5.3
	c0.1,0.8,0.3,1.3,0.8,1.3h0.6l0.1,0.9l-4.8,0.6l-0.1-0.9l0.6-0.1c0.5-0.1,0.6-0.7,0.5-1.4l-0.7-5.3c-0.1-0.6-0.2-1.6-1-1.5
	s-1,1.3-0.9,2.2l0.1,0.9l-1.1,0.1L147,2z"/>
<path class="st0" d="M164.6,7.4l-0.1,0.5c-0.2,1,0,1.7,0.5,1.8l0.6,0.1v0.9l-4.2,0.1V10l0.5-0.1c0.5-0.1,0.8-0.7,1.4-2.4l2-7.2h1.8
	l2.5,7.4c0.3,1.2,0.7,1.6,1,1.7l0.6,0.1v0.9l-4.9,0.1V9.7l0.5-0.1c0.5-0.1,0.7-0.6,0.3-1.8L167,7.3L164.6,7.4z M166.6,5.9l-0.7-2.5
	h-0.1L165,5.9H166.6z"/>
<path class="st0" d="M188.4,7.4l-0.3,2.2c-0.1,0.8,0,1.3,0.7,1.5l0.5,0.1l-0.1,0.9l-4.8-0.7l0.1-0.9h0.7c0.5,0,0.7-0.5,0.8-1.3
	l0.8-5.6c0.1-0.8,0-1.3-0.5-1.4L185.7,2l0.1-0.9l5.5,0.8c2.5,0.3,3.5,1.6,3.3,3.3c-0.1,1-0.8,1.9-1.8,2.2c0.6,0.5,0.8,1.3,0.7,2.1
	c0,0.9,0,1.4,0.2,1.5s0.5-0.5,0.5-0.8l0.1-0.8l1.1,0.1l-0.1,0.8c-0.3,2.3-1.1,2.8-2.3,2.6c-1.4-0.2-1.8-0.9-1.8-3
	c0-0.9-0.1-2.1-1-2.2L188.4,7.4z M189.8,3.1C189.3,3,189.1,3.2,189,4l-0.2,1.8l2.1,0.3c0.7,0.1,1.4-0.4,1.5-1.1V4.9
	c0.1-1-0.5-1.6-1.1-1.6L189.8,3.1z"/>
<path class="st0" d="M203.6,6.7c0.2-0.8,0.1-1.3-0.3-1.5L202.8,5l0.2-0.9l4.6,1.2l-0.2,0.9L206.7,6c-0.5,0-0.8,0.3-0.9,1.2l-1.4,5.5
	c-0.2,0.7-0.1,1.3,0.3,1.5l0.6,0.2l-0.2,0.9l-4.7-1.1l0.2-0.9l0.7,0.1c0.5,0,0.8-0.3,0.9-1.1L203.6,6.7z"/>
<path class="st0" d="M218.8,14.1c0.6-1.5,0.8-3.9-0.7-4.5c-1.1-0.5-1.6,0.3-1.9,1.3l-1.5,4.1c-0.5,1.3-0.2,2.3,0.8,2.8
	s2.1,0,2.6-1.7l1.9,0.7c-0.6,1.6-2.3,3-5,2c-2.1-0.5-3.4-2.7-2.8-4.8c0.1-0.2,0.1-0.4,0.2-0.6l0.9-2.5c1-2.1,3.6-2.9,5.6-1.8
	c0.3,0.2,0.6,0.4,0.9,0.6c0.2,0.2,0.5,0.4,0.8,0.6c0.2,0.1,0.3,0,0.5-0.3l1.2,0.5l-1.7,4.6L218.8,14.1z"/>
<path class="st0" d="M228.4,20.9l-0.3,0.3c-0.7,0.7-0.8,1.5-0.5,1.8l0.5,0.3l-0.5,0.8l-3.8-2l0.5-0.8l0.5,0.1c0.5,0.1,1-0.2,2.3-1.4
	l5.2-5.1l1.6,0.8l-1.4,7.8c-0.2,0.7-0.2,1.4,0.1,2.1l0.5,0.5l-0.5,0.8l-4.3-2.3l0.5-0.8l0.5,0.1c0.6,0.1,0.9-0.1,1.2-1.4l0.1-0.5
	L228.4,20.9z M230.9,20.5l0.6-2.5h-0.1l-1.9,1.8L230.9,20.5z"/>
<path class="st0" d="M82.8,178.9h-1.2v-21.4H85v-5.6h1.2v6.9h-3.5v20.1H82.8z"/>
<path class="st0" d="M144,164.3h-4.2V163h3v-11.5h1.2V164.3z"/>
<path class="st0" d="M242.6,166.8h-7.3v-1.3h6v-9.1h1.2L242.6,166.8z"/>
<path class="st0" d="M222.3,191.8c-5,0.2-10-1.1-14.3-3.7c-0.4-0.2-0.7-0.4-1.1-0.6l0.5-1.1c0.4,0.2,0.9,0.4,1.2,0.7
	c2.1,1.3,6,3.6,13.6,3.6c8.9,0,11.3-1.5,13.6-3l0.3-0.2c2.4-1.5,3.8-2.2,3.8-2.2l0.2-0.1h1v-9.9h1.2v11.1h-1.9
	c-0.3,0.2-1.6,0.8-3.5,2.1l-0.3,0.2C234.2,190.2,231.6,191.8,222.3,191.8z"/>
<path class="st0" d="M57.4,157.7h-1.3v21.2h1.2L57.4,157.7z"/>
<path class="st0" d="M60.2,190.1H46.3v-1.3H59v-5.6h1.2V190.1z"/>
<path class="st0" d="M33.8,190.1H19.9v-1.3h12.7v-5.6h1.2V190.1z"/>
<path class="st0" d="M30.9,165.2h-1.3v-1.4c0-4.2,0-4.6,1.5-5.4l0.3-0.1c3.1-1.7,11.4-0.5,11.7-0.5l-0.2,1.3c-2.3-0.3-8.7-1-11,0.2
	l-0.3,0.2c-0.8,0.5-0.8,0.5-0.8,4.2L30.9,165.2z"/>
<path class="st0" d="M30.9,179.7h-1.3v-4.1H44v1.3H30.9V179.7z"/>
<path class="st0" d="M96.5,190.1H70.8v-1.3h25.5c0.9,0,1.9-0.4,2.6-0.9c0.7-0.8,1.1-1.9,1-3v-7h1.2v7c0.1,1.5-0.4,2.9-1.5,3.9
	C98.8,189.6,97.7,190.1,96.5,190.1z"/>
<path class="st0" d="M119.7,161.9c-0.5-0.8-0.5-1.8,0-2.6c0.6-0.9,1.7-1.4,2.7-1.4c2.9,0,5.8,0.1,8.7,0.3l-0.1,1.3
	c-2.8-0.3-5.6-0.4-8.4-0.3c-0.7,0-1.3,0.3-1.7,0.8c-0.2,0.5-0.2,1,0,1.5L119.7,161.9z"/>
<path class="st0" d="M127.2,191c-3,0-6-0.3-8.9-1v0.1h-4.8v-1.3h3.5v-0.6l0.8,0.3c4.6,1.6,13.2,1.7,17.3,0.2c2.4-1,4.8-2.2,7-3.7
	c0.3-0.2,0.6-0.5,0.8-0.8c-0.2-0.5-0.3-5.3,0-14.4h1.2c-0.1,4.9-0.2,13.2,0,14c0.6,1-0.9,2.1-1.2,2.3c-2.3,1.5-4.8,2.7-7.3,3.8
	C132.9,190.7,130,191.1,127.2,191z"/>
<path class="st0" d="M129.6,175.2c-1.5,0-14.1-0.5-16.7-3l0.9-0.9c1.8,1.8,12.1,2.5,15.9,2.6L129.6,175.2z"/>
<path class="st0" d="M267,178.6h-1.3v-19.7h3.2v-7.2h1.2v8.5H267V178.6z"/>
<path class="st0" d="M269.9,190h-14.5v-1.3h13.2v-6.6h1.2L269.9,190L269.9,190z"/>
<path class="st0" d="M217.1,176.4h-1.3v-14.2c0.1-1.5,1.1-2.8,2.6-3.2c2.9-1,9.9,0,10.3,0l-0.2,1.3c-0.1,0-7.1-1-9.7-0.1
	c-1,0.2-1.8,1-1.8,2.1v14.2"/>
<path class="st0" d="M90.5,180.3H80.2c0,0-0.2-25.7,0-24.4c0.8,0,2.8-0.1,2.8-0.1V150H69.3v5.7l2.8,0.1c0,0,0.5,23.5,0,24.3
	c-0.7,0-2.8,0.1-2.8,0.1v6.7h26.2c1.4,0,2.6-1.1,2.6-2.5l0,0v-9.3h-7.5L90.5,180.3z"/>
<path class="st0" d="M253.2,156.9l2.8,0.1c0,0,0.5,22.5,0,23.3c-0.7,0-2.9,0.1-2.9,0.1v6.8H267v-6.8c0,0-1.7-0.1-2.9-0.1
	c-0.2-0.5,0-23.3,0-23.3l2.9-0.1v-6.8h-13.8V156.9z"/>
<path class="st0" d="M236.6,152.5l-0.8-0.7c-0.5-0.4-1.1-0.7-1.7-1c-2.6-1.3-6.2-1.9-10.7-1.9h-1.8c-2.3,0-4.6,0.2-6.8,0.8h-0.1
	c-1.6,0.5-3.2,1.2-4.7,2.1l-4.8,2.4l0.3,2.2v0.2c0,0.2,0.2,1.3,0.3,3v18.1c0.1,1-0.1,1.9-0.3,2.9v0.2l-0.3,2.2l4.8,2.4
	c1.5,0.9,3,1.6,4.7,2.1h0.1c2.2,0.5,4.5,0.8,6.8,0.8h1.8c4.6,0,8.1-0.7,10.7-1.9c0.6-0.3,1.2-0.6,1.7-1l0.8-0.7
	c0.6-0.5,1.2-1,1.8-1.4l1.1-0.1v-9.5h-7.6v1.6c0,0.6,0,1.2-0.1,1.8c-0.1,0.4-0.2,0.9-0.5,1.3l-0.1,0.2c0,0.1,0,0.1-0.1,0.1l0,0
	c0,0.1-0.1,0.1-0.2,0.2c-1.2,1.3-3.8,1.9-7.5,1.9h-4c-0.2,0-0.4-0.1-0.6-0.1c-0.2,0-0.3,0-0.5-0.1c-0.1,0-0.3-0.1-0.5-0.1l-0.3-0.1
	c-0.1,0-0.3-0.1-0.5-0.1l-0.3-0.1c-0.1,0-0.2-0.1-0.3-0.1s-0.3-0.1-0.6-0.2s-0.1-0.1-0.2-0.1s-0.1-0.1-0.2-0.1l-0.2-0.1l-0.2-0.2
	l-0.1-0.1l-0.2-0.2l-0.1-0.1c0-0.1,0-0.2-0.1-0.2l-0.1-0.1c-0.3-0.5-0.5-1.1-0.6-1.7c-0.1-0.5-0.1-1.1-0.1-1.6v-12.5
	c0-0.5,0-1.1,0.1-1.6c0-0.6,0.2-1.2,0.6-1.7l0.1-0.1c0-0.1,0.1-0.1,0.1-0.2l0.1-0.1c0.1-0.1,0.1-0.2,0.2-0.2l0.1-0.1l0.2-0.2
	l0.2-0.1l0.2-0.2c0.1,0,0.1-0.1,0.2-0.1s0.3-0.2,0.6-0.2c0.1-0.1,0.2-0.1,0.3-0.1l0.3-0.1c0.1,0,0.3-0.1,0.5-0.1l0.3-0.1
	c0.1,0,0.3-0.1,0.5-0.1s0.2-0.1,0.5-0.1c0.2,0,0.4,0,0.6-0.1h0.5c0.3,0,0.5,0,0.8-0.1h2.7c3.8,0,6.3,0.7,7.5,1.9l0.2,0.2
	c0.1,0,0.1,0,0.1,0.1l0,0l0.1,0.1c0.2,0.4,0.4,0.8,0.5,1.3c0.1,0.6,0.1,1.2,0.1,1.8v1.6h7.6V154l-1.1-0.1
	C237.7,153.6,237.1,153.1,236.6,152.5z"/>
<path class="st0" d="M46,166.9H27.8v-5.3c0-3.1,0.9-4.1,2.2-4.8s3.5-1,6.6-1.1s6,0.3,7.4,1.1s2.2,1.8,2.2,4.8L46,166.9z M54.1,161.1
	c0-1,0.1-4.2,0.1-4.6l0.1-0.7l-0.5-0.5c0,0-1.8-1.8-3.3-3.1l-0.8-0.7c-2.7-1.9-7.6-3-13.3-3h-0.1c-5.7,0-9.8,1-12.5,3l-0.8,0.6
	c-1.4,1.3-3.2,3-3.2,3l-0.5,0.5l0.1,0.6c0.1,0.6,0.1,3.8,0.1,4.7c0,0,0.3,19.8,0,20.2c-0.3,0-2.9,0.1-2.9,0.1v5.7h13.8v-5.7
	l-2.9-0.1v-7.6h18.3v7.6l-2.8,0.1v5.7h13.8v-5.7c0,0-1.9-0.1-2.8-0.1C53.8,180.5,54.1,161.1,54.1,161.1L54.1,161.1z"/>
<path class="st0" d="M137.2,185.4l0.1-0.1c2.1-1.3,2.7-1.7,3-1.8l0.6-0.3l-0.1-0.7V174c0-6.5-4.2-8-11.1-8.9l-6.6-0.6
	c-5-0.7-5.4-1.9-5.4-3.3v-2.3c0-1.3,0.8-2.6,6.7-2.6c6.5,0,9.7,1.6,9.7,2.9v2.5h6.6v-11.4H135v1.3c0,0-0.1-0.2-1.1-0.7
	s-6.5-1.3-10.2-1.3c-4.4,0-8,0.8-10.3,2.4l-0.1,0.1c-0.7,0.5-3.1,1.8-3.1,1.8l-0.6,0.3l0.1,0.7c0,0.3,0.1,1.7,0.1,3.2v3.9
	c0,7.6,6.4,8.8,11.2,9.4l6.7,0.6c4.7,0.6,5.1,1.7,5.1,3.3v3.2c0,1.3-2.5,2.6-8.6,2.6c-6.5,0-7.9-1.6-7.9-2.9v-2.5h-6.6v11.4h5.7
	v-1.4l1.1,0.8c2.2,1,5.7,1.3,9.2,1.3C130.6,187.8,134.9,187,137.2,185.4z"/>
<path class="st0" d="M92,126l0.6,0.1c0.6,0.1,0.9,0.7,0.9,1.7v2.6h-4.7v-2.6c0-1,0.3-1.6,0.9-1.7l0.7-0.1v-1.3h-6.6v1.3l0.9,0.1
	c0.6,0.1,0.9,0.7,0.9,1.7v7.4c0,1-0.2,1.6-0.9,1.7l-0.9,0.1v1.3h6.6V137l-0.7-0.1c-0.7-0.1-0.9-0.7-0.9-1.7v-3h4.7v3
	c0,1-0.2,1.6-0.9,1.7L92,137v1.3h6.3V137l-0.9-0.1c-0.7-0.1-0.9-0.7-0.9-1.7v-7.4c0-1,0.3-1.6,0.9-1.7l0.9-0.1v-1.3H92V126z"/>
<path class="st0" d="M115.1,128.8l1,3.3h-2.3L115.1,128.8z M109.1,137.1l-0.7,0.1v1.3h5.9v-1.3l-0.6-0.1c-0.7-0.2-1-1.1-0.7-2.4
	l0.2-0.7h3.4l0.2,0.7c0.5,1.6,0.1,2.2-0.6,2.4l-0.6,0.1v1.3h6.7v-1.3l-0.8-0.2c-0.5-0.1-0.9-0.8-1.5-2.3l-3.3-10h-2.6l-3.4,9.2
	C110.2,136.2,109.8,136.9,109.1,137.1L109.1,137.1z"/>
<path class="st0" d="M141.4,125.4c-0.5-0.1-0.9-0.2-1.4-0.3c-0.7-0.3-1.5-0.4-2.3-0.5c-3.5,0-5.8,2.6-5.8,4.9v3.6
	c0,2.6,1.7,5.4,6.2,5.4c4.1,0,5.7-2.3,5.7-4.6h-3c0,2.4-1,3.2-2.7,3.2s-2.4-1.3-2.4-3v-5.7c0-1.2,0.3-2.4,2.1-2.4
	c2.2,0,3.1,2.4,3.1,4.6h3v-5.8H142C141.8,125.3,141.7,125.4,141.4,125.4z"/>
<path class="st0" d="M155.4,137.1l-0.9,0.1v1.3h6.8v-1.3l-0.9-0.1c-0.7-0.1-0.9-0.7-0.9-1.7V128c0-1,0.3-1.6,0.9-1.7l0.9-0.1v-1.3
	h-6.8v1.3l0.9,0.1c0.6,0.1,0.9,0.7,0.9,1.7v7.4C156.3,136.4,156.1,137,155.4,137.1z"/>
<path class="st0" d="M182.5,129.6v-4.7h-11.2v1.3l0.9,0.1c0.6,0.1,0.9,0.7,0.9,1.7v7.5c0,1-0.2,1.6-0.9,1.7l-0.9,0.1v1.3h11.2V134
	h-1.8v0.6c0,1.4-0.5,2.4-2.5,2.4c-1.5,0-1.8-0.6-1.8-1.5V132h2.9v-1.5h-2.9v-2.8c0-1,0.5-1.5,1.8-1.5c1.3-0.1,2.4,0.9,2.5,2.2
	c0,0.1,0,0.2,0,0.4v0.9L182.5,129.6"/>
<path class="st0" d="M196.8,127.8l5,10.5h3.3v-10.5c0-1,0.3-1.6,0.9-1.7l0.9-0.1v-1.3h-5.2v1.2l0.7,0.1c0.6,0.1,0.9,0.7,0.9,1.7v4.7
	l-3.8-7.8h-6.4v1.3l0.9,0.1c0.6,0.1,0.9,0.7,0.9,1.7v7.4c0,1-0.2,1.6-0.9,1.7l-0.9,0.1v1.3h5.1v-1.3l-0.6-0.1
	c-0.7-0.1-0.9-0.7-0.9-1.7v-7.3H196.8z"/>
<path class="st0" d="M221.9,128c0-1,0.1-1.6,0.9-1.6h1.9c1.2,0,2.2,0.8,2.2,5.3c0,3.9-0.8,5.3-3,5.3h-1.2c-0.6,0-0.9-0.6-0.9-1.5
	V128H221.9z M217.7,137.2l-0.9,0.1v1.3h7c4,0,7-1.6,7-6.6s-2.5-7-5.9-7h-8v1.3l0.9,0.1c0.6,0.1,0.9,0.7,0.9,1.7v7.5
	C218.6,136.4,218.4,137,217.7,137.2L217.7,137.2z"/>
<path class="st0" d="M244,132.1l1.1-3.3h0.1l0.9,3.3H244z M250.4,134.7l-3.3-10h-2.6l-3.3,9.2c-0.8,2.2-1.2,2.9-1.9,3.1l-0.6,0.1
	v1.3h5.9v-1.3L244,137c-0.6-0.2-1-1.1-0.6-2.4l0.2-0.7h3.3l0.2,0.7c0.5,1.6,0.1,2.2-0.6,2.4l-0.6,0.1v1.3h6.7v-1.3l-0.8-0.2
	C251.3,136.9,250.8,136.2,250.4,134.7L250.4,134.7z"/>
<path class="st0" d="M193.6,157.7h-1.3v21.2h1.2L193.6,157.7z"/>
<path class="st0" d="M196.4,190.1h-13.9v-1.3h12.7v-5.6h1.2V190.1z"/>
<path class="st0" d="M170,190.1h-13.9v-1.3h12.7v-5.6h1.2V190.1z"/>
<path class="st0" d="M167.1,165.2h-1.3v-1.4c0-4.1,0-4.6,1.5-5.4l0.3-0.1c3.1-1.7,11.4-0.5,11.8-0.5l-0.2,1.3c-2.3-0.3-8.7-1-11,0.2
	l-0.3,0.2c-0.8,0.5-0.8,0.5-0.8,4.2V165.2z"/>
<path class="st0" d="M167.1,179.7h-1.3v-4.1h14.3v1.3h-13V179.7z"/>
<path class="st0" d="M182.2,166.9H164v-5.3c0-3.1,0.8-4.1,2.2-4.8c2.1-0.8,4.3-1.2,6.5-1.1c3,0,6,0.3,7.4,1.1s2.2,1.8,2.2,4.8
	L182.2,166.9z M190.3,161.1c0-1,0.1-4.2,0.1-4.6l0.1-0.7l-0.5-0.5c0,0-1.8-1.8-3.3-3.1l-0.8-0.7c-2.7-1.9-7.6-3-13.4-3h-0.1
	c-5.7,0-9.8,1-12.6,3l-0.8,0.6c-1.4,1.3-3.3,3-3.3,3l-0.5,0.5l0.1,0.6c0.1,0.6,0.1,3.8,0.1,4.7c0,0,0.3,19.8,0,20.2
	c-0.3,0-2.9,0.1-2.9,0.1v5.7h13.8v-5.7l-2.9-0.1v-7.6H182v7.6l-2.9,0.1v5.7H193v-5.7c0,0-1.9-0.1-2.9-0.1
	C190,180.5,190.3,161.1,190.3,161.1L190.3,161.1z"/>
<path class="st0" d="M320.1,157.7h-1.3v21.2h1.2L320.1,157.7z"/>
<path class="st0" d="M322.8,190.1H309v-1.3h12.5v-5.6h1.2L322.8,190.1L322.8,190.1z"/>
<path class="st0" d="M296.4,190.1h-13.8v-1.3h12.5v-5.6h1.2L296.4,190.1L296.4,190.1z"/>
<path class="st0" d="M293.6,165.2h-1.3v-1.4c0-4.2,0-4.6,1.5-5.4l0.3-0.1c3.1-1.7,11.4-0.5,11.8-0.5l-0.2,1.3c-2.3-0.3-8.7-1-11,0.2
	l-0.3,0.2c-0.8,0.5-0.8,0.5-0.8,4.2V165.2z"/>
<path class="st0" d="M293.6,179.7h-1.3v-4.1h14.3v1.3h-13V179.7z"/>
<path class="st0" d="M308.6,166.9h-18.2v-5.3c0-3.1,0.8-4.1,2.2-4.8s3.5-1,6.6-1.1s6,0.3,7.4,1.1s2.2,1.8,2.2,4.8L308.6,166.9z
	 M316.7,161.1c0-1,0.1-4.2,0.1-4.6l0.1-0.7l-0.5-0.5c0,0-1.8-1.8-3.3-3.1l-0.8-0.7c-2.7-1.9-7.6-3-13.4-3h-0.1c-5.7,0-9.8,1-12.5,3
	l-0.8,0.6c-1.4,1.3-3.2,3-3.2,3l-0.5,0.5l0.1,0.6c0.1,0.6,0.1,3.8,0.1,4.7c0,0,0.3,19.8,0,20.2c-0.3,0-2.9,0.1-2.9,0.1v5.7h13.8
	v-5.7l-2.9-0.1v-7.6h18.3v7.6l-2.9,0.1v5.7h13.8v-5.7c0,0-1.9-0.1-2.9-0.1C316.4,180.5,316.7,161.1,316.7,161.1L316.7,161.1z"/>
<path class="st1" d="M322.8,210.8h-19.9v1.2h19.9V210.8z"/>
<path class="st0" d="M51.9,209c-0.2-0.3-0.5-0.5-0.8-0.7s-0.7-0.3-1-0.2h-0.5c-0.2,0-0.3,0.1-0.5,0.1s-0.2,0.2-0.3,0.3
	s-0.1,0.3-0.1,0.5s0,0.3,0.1,0.5l0.3,0.3c0.1,0.1,0.3,0.1,0.5,0.2s0.5,0.1,0.7,0.2s0.7,0.2,1.1,0.3c0.4,0.1,0.7,0.3,1,0.6
	s0.6,0.6,0.8,0.9c0.2,0.4,0.4,0.9,0.3,1.4c0,0.6-0.1,1.1-0.3,1.6c-0.2,0.4-0.5,0.8-0.9,1.1s-0.8,0.5-1.2,0.7
	c-1.2,0.3-2.5,0.3-3.7-0.1c-0.7-0.2-1.2-0.6-1.7-1.1l1.7-1.7c0.3,0.3,0.6,0.6,1,0.8s0.8,0.3,1.2,0.3c0.2,0,0.4,0,0.6-0.1
	c0.2,0,0.3-0.1,0.5-0.2l0.3-0.3c0.1-0.2,0.1-0.4,0.1-0.6c0-0.2,0-0.3-0.1-0.5c-0.1-0.1-0.3-0.3-0.5-0.3l-0.7-0.3
	c-0.3-0.1-0.6-0.2-0.9-0.3l-1-0.4c-0.3-0.1-0.6-0.3-0.9-0.6c-0.2-0.2-0.4-0.5-0.6-0.8c-0.2-0.4-0.2-0.8-0.2-1.3s0.1-1,0.3-1.5
	c0.2-0.4,0.5-0.7,0.9-1s0.8-0.4,1.2-0.6c0.5-0.1,1-0.2,1.5-0.2c0.6,0,1.2,0.1,1.8,0.3s1.1,0.5,1.6,0.9L51.9,209z"/>
<path class="st0" d="M62.4,208.5v8.4h-2.5v-8.4h-3v-2.2h8.4v2.2H62.4z"/>
<path class="st0" d="M75.4,216.8l-0.8-2.1h-4.1l-0.8,2.1H67l4.4-10.6h2.4l4.3,10.6H75.4z M72.6,209l-1.4,3.7h2.6L72.6,209z"/>
<path class="st0" d="M87.1,216.8l-2.3-4.2h-0.9v4.2h-2.5v-10.6h4c0.5,0,1,0,1.5,0.1s0.9,0.3,1.2,0.6c0.4,0.3,0.7,0.6,0.9,1
	c0.2,0.5,0.3,1,0.3,1.5c0,0.7-0.2,1.3-0.6,1.8s-1,0.8-1.6,1l2.8,4.5L87.1,216.8L87.1,216.8z M87,209.5c0-0.2,0-0.4-0.1-0.6
	c-0.1-0.1-0.3-0.3-0.5-0.3c-0.2-0.1-0.4-0.1-0.6-0.1h-1.9v2.4h1.9c0.2,0,0.4-0.1,0.6-0.2c0.2-0.1,0.3-0.2,0.5-0.3
	C87,210.1,87,209.8,87,209.5z"/>
<path class="st0" d="M102.3,213.8c0,0.5-0.1,1-0.3,1.5c-0.2,0.4-0.6,0.7-0.9,0.9c-0.4,0.3-0.8,0.4-1.2,0.5c-0.5,0.1-1,0.1-1.5,0.1
	h-4.2v-10.6h4.2c0.4,0,0.8,0,1.2,0.1c0.4,0.1,0.8,0.2,1.1,0.5c0.3,0.2,0.6,0.5,0.8,0.8c0.2,0.4,0.4,0.9,0.3,1.4
	c0,0.5-0.1,1.1-0.5,1.5c-0.3,0.4-0.7,0.7-1.2,0.8c0.3,0,0.6,0.1,0.8,0.2c0.2,0.1,0.5,0.3,0.7,0.5s0.3,0.4,0.5,0.7
	C102.2,213,102.3,213.4,102.3,213.8z M99.5,209.3c0-0.3-0.2-0.6-0.5-0.8c-0.4-0.2-0.8-0.2-1.2-0.2h-1.2v2.2H98
	c0.4,0,0.8-0.1,1.1-0.3C99.3,210,99.5,209.6,99.5,209.3z M99.8,213.5c0-0.4-0.1-0.7-0.5-0.9c-0.4-0.1-0.8-0.2-1.2-0.2h-1.4v2.4h1.9
	c0.2,0,0.4-0.1,0.6-0.2c0.2-0.1,0.3-0.2,0.5-0.3C99.8,214.1,99.8,213.8,99.8,213.5z"/>
<path class="st0" d="M115.1,214.6c-0.2,0.5-0.5,1-0.9,1.4c-0.9,0.8-2.1,1.3-3.3,1.3c-0.6,0-1.3-0.1-1.8-0.3s-1-0.5-1.4-0.9
	s-0.7-0.9-0.9-1.4c-0.2-0.5-0.3-1.1-0.3-1.7v-6.5h2.5v6.4c0,0.3,0,0.5,0.1,0.8l0.3,0.7c0.1,0.2,0.3,0.4,0.6,0.5
	c0.6,0.3,1.3,0.3,1.8,0c0.2-0.1,0.4-0.2,0.6-0.5l0.3-0.7c0.1-0.3,0.1-0.5,0.1-0.8v-6.4h2.5v6.5C115.4,213.4,115.3,214,115.1,214.6z"
	/>
<path class="st0" d="M127.5,216.6c-0.8,0.3-1.6,0.5-2.4,0.5s-1.6-0.1-2.3-0.5c-0.7-0.3-1.3-0.7-1.8-1.1c-0.5-0.5-0.9-1.1-1.1-1.7
	c-0.6-1.5-0.6-3.1,0-4.6c0.3-0.7,0.7-1.2,1.2-1.7c0.6-0.4,1.2-0.8,1.8-1.1c0.7-0.2,1.5-0.3,2.3-0.3c0.7,0,1.5,0.1,2.2,0.3
	s1.2,0.6,1.7,1.1l-1.7,1.7c-0.2-0.3-0.5-0.6-0.9-0.7c-0.4-0.1-0.8-0.2-1.1-0.2c-0.4,0-0.8,0.1-1.2,0.2c-0.4,0.1-0.7,0.4-0.9,0.7
	c-0.3,0.3-0.4,0.6-0.6,1c-0.3,0.8-0.3,1.7,0,2.5c0.1,0.4,0.3,0.7,0.6,1c0.3,0.3,0.6,0.5,0.9,0.7c0.4,0.2,0.8,0.3,1.2,0.2
	c0.5,0,0.9-0.1,1.4-0.3c0.4-0.2,0.7-0.5,0.9-0.8l1.7,1.7C128.8,215.8,128.2,216.3,127.5,216.6z"/>
<path class="st0" d="M139.6,216.8l-3.9-4.8v4.8h-2.5v-10.5h2.5v4.2l3.8-4.2h3.2l-4.6,4.8l4.8,5.7H139.6z"/>
<path class="st0" d="M152.1,209c-0.2-0.3-0.5-0.5-0.8-0.7s-0.7-0.3-1-0.2h-0.5c-0.1,0-0.3,0.1-0.5,0.1l-0.3,0.3
	c-0.1,0.1-0.1,0.3-0.1,0.5s0,0.3,0.1,0.5l0.3,0.3c0.1,0.1,0.3,0.1,0.5,0.2s0.5,0.1,0.7,0.2s0.7,0.2,1.1,0.3c0.4,0.1,0.7,0.3,1,0.6
	s0.6,0.6,0.8,0.9c0.2,0.4,0.4,0.9,0.3,1.4c0,0.6-0.1,1.1-0.3,1.6c-0.2,0.4-0.5,0.8-0.9,1.1s-0.8,0.5-1.2,0.7
	c-1.2,0.3-2.5,0.3-3.6-0.1c-0.7-0.2-1.2-0.6-1.7-1.1l1.7-1.7c0.3,0.3,0.6,0.6,1,0.8s0.8,0.3,1.2,0.3c0.2,0,0.4,0,0.6-0.1
	c0.2-0.1,0.3-0.1,0.5-0.2l0.3-0.3c0.1-0.2,0.1-0.4,0.1-0.6c0-0.2,0-0.3-0.1-0.5c-0.1-0.1-0.3-0.3-0.5-0.3l-0.7-0.3
	c-0.3-0.1-0.6-0.2-0.9-0.3l-1-0.3c-0.3-0.1-0.6-0.3-0.9-0.6c-0.3-0.2-0.5-0.5-0.6-0.8c-0.2-0.4-0.2-0.8-0.2-1.3s0.1-1,0.3-1.5
	c0.2-0.4,0.5-0.7,0.9-1s0.8-0.4,1.2-0.6c0.5-0.1,1-0.2,1.5-0.2c0.6,0,1.2,0.1,1.8,0.3s1.1,0.5,1.6,0.9L152.1,209z"/>
<path class="st0" d="M172.4,216.6c-0.8,0.3-1.6,0.5-2.4,0.5c-0.8,0-1.6-0.1-2.3-0.5c-0.7-0.3-1.3-0.7-1.8-1.1
	c-0.5-0.5-0.9-1.1-1.1-1.7c-0.6-1.5-0.6-3.1,0-4.6c0.3-0.7,0.7-1.2,1.2-1.7c0.6-0.4,1.2-0.8,1.8-1.1c0.7-0.2,1.5-0.3,2.3-0.3
	c0.7,0,1.5,0.1,2.2,0.3s1.2,0.6,1.7,1.1l-1.7,1.7c-0.2-0.3-0.5-0.6-0.9-0.7c-0.4-0.1-0.8-0.2-1.1-0.2c-0.4,0-0.8,0.1-1.2,0.2
	c-0.4,0.1-0.7,0.4-0.9,0.7c-0.3,0.3-0.4,0.6-0.6,1c-0.3,0.8-0.3,1.7,0,2.5c0.1,0.4,0.3,0.7,0.6,1s0.6,0.5,0.9,0.7
	c0.4,0.2,0.8,0.3,1.2,0.2c0.5,0,0.9-0.1,1.4-0.3c0.4-0.2,0.7-0.5,0.9-0.8l1.7,1.7C173.8,215.8,173.1,216.3,172.4,216.6z"/>
<path class="st0" d="M188.5,211.4c0,0.8-0.1,1.6-0.5,2.3c-0.3,0.6-0.7,1.2-1.1,1.7c-0.5,0.5-1.1,0.9-1.8,1.1
	c-0.7,0.3-1.5,0.4-2.3,0.5c-0.8,0-1.6-0.1-2.3-0.5c-0.7-0.3-1.3-0.7-1.8-1.1c-0.5-0.5-0.9-1.1-1.1-1.7c-0.6-1.5-0.6-3.1,0-4.6
	c0.3-0.6,0.7-1.2,1.1-1.7c0.5-0.5,1.2-0.9,1.8-1.1c1.5-0.5,3.1-0.5,4.6,0c0.7,0.2,1.3,0.6,1.8,1.1s0.9,1.1,1.1,1.7
	C188.4,209.9,188.5,210.7,188.5,211.4z M185.8,211.4c0-0.4-0.1-0.9-0.2-1.3c-0.1-0.4-0.3-0.7-0.6-1s-0.6-0.5-0.9-0.7
	c-0.4-0.1-0.8-0.2-1.2-0.2s-0.8,0.1-1.2,0.2c-0.4,0.1-0.7,0.4-0.9,0.7c-0.3,0.3-0.5,0.6-0.6,1s-0.2,0.8-0.2,1.3s0.1,0.9,0.2,1.4
	c0.1,0.4,0.3,0.7,0.6,1s0.6,0.5,0.9,0.7c0.4,0.1,0.8,0.2,1.2,0.2s0.8-0.1,1.2-0.2c0.4-0.1,0.7-0.3,0.9-0.7c0.2-0.3,0.4-0.6,0.6-1
	C185.7,212.4,185.8,211.9,185.8,211.4L185.8,211.4z"/>
<path class="st0" d="M195.1,208.5v2.2h4.1v2.1h-4.1v4.1h-2.5v-10.6h7v2.2H195.1z"/>
<path class="st0" d="M206.7,208.5v2.2h4.1v2.1h-4.1v4.1h-2.5v-10.6h7v2.2H206.7z"/>
<path class="st0" d="M215.7,216.8v-10.6h7.1v2.2h-4.6v1.9h4.3v2.1h-4.3v2.2h4.9v2.2L215.7,216.8z"/>
<path class="st0" d="M227.7,216.8v-10.6h7.1v2.2h-4.6v1.9h4.3v2.1h-4.3v2.2h4.9v2.2L227.7,216.8z"/>
<path class="st0" d="M248.7,208.5v2.2h4.1v2.1h-4.1v4.1h-2.5v-10.6h7v2.2H248.7z"/>
<path class="st0" d="M264,216.8l-0.8-2.1h-4.1l-0.8,2.1h-2.7l4.5-10.6h2.5l4.3,10.6H264z M261.3,209l-1.4,3.7h2.6L261.3,209z"/>
<path class="st0" d="M275.9,216.8l-2.3-4.2h-0.9v4.2h-2.5v-10.6h4c0.5,0,1,0,1.5,0.1s0.9,0.3,1.2,0.6c0.4,0.3,0.7,0.6,0.9,1
	c0.2,0.5,0.3,1,0.3,1.5c0,0.7-0.2,1.3-0.6,1.8s-1,0.8-1.6,1l2.7,4.5L275.9,216.8z M275.8,209.5c0-0.2,0-0.4-0.1-0.6
	c-0.1-0.1-0.3-0.3-0.5-0.3c-0.2-0.1-0.4-0.1-0.6-0.1h-1.9v2.4h1.9c0.2,0,0.4-0.1,0.6-0.2c0.2-0.1,0.3-0.2,0.5-0.3
	C275.8,210.1,275.8,209.8,275.8,209.5z"/>
<path class="st0" d="M292.5,216.8l0.1-7.4l-2.7,7.4H288l-2.6-7.4l0.1,7.4h-2.4v-10.6h3.6l2.4,6.8h0.1l2.3-6.8h3.6v10.6H292.5z"/>
<path class="st1" d="M36.8,210.8H17v1.2h19.8V210.8z"/>
<path class="st0" d="M330,190h-0.6v-3.9H328v-0.5h3.5v0.5H330V190z"/>
<path class="st0" d="M334.4,189L334.4,189l1.3-3.4h1v4.4h-0.6v-3.7l0,0l-1.5,3.7h-0.4l-1.5-3.7l0,0v3.7h-0.6v-4.4h1L334.4,189z"/>
<g>
	<g>
		<g>
			<path class="st2" d="M136.5,76.7l-0.7-4.3l0,0l-0.3,4.5l-1,0.2l-1.8-4.1l0,0l0.8,4.3l-1.3,0.2l-1.1-6.2l1.8-0.3l1.7,3.8l0,0
				l0.3-4.2l1.9-0.3l1.1,6.2L136.5,76.7z"/>
			<path class="st2" d="M141.7,75.7l-0.5-1.1l-1.4,0.2l-0.1,1.2l-1.4,0.2l0.4-6.5l1.8-0.3l2.6,6L141.7,75.7z M139.9,71L139.9,71
				l-0.1,2.8l1.1-0.2L139.9,71z"/>
			<path class="st2" d="M145.5,70.2c-0.3-0.2-0.6-0.3-0.9-0.2c-0.3,0.1-0.6,0.3-0.5,0.8c0.1,0.4,0.4,0.5,0.9,0.7
				c0.6,0.2,1.5,0.5,1.6,1.6c0.2,1.3-0.6,2.2-1.6,2.4c-0.7,0.1-1.5-0.1-1.9-0.4l0.5-1.2c0.3,0.2,0.7,0.4,1.1,0.3
				c0.3-0.1,0.6-0.3,0.5-0.7c-0.1-0.4-0.4-0.6-1-0.7c-0.7-0.2-1.4-0.5-1.6-1.6c-0.2-1.4,0.7-2.2,1.6-2.3c0.7-0.1,1.3,0,1.7,0.3
				L145.5,70.2z"/>
			<path class="st2" d="M148.8,69.3l0.9,5l-1.4,0.2l-0.9-5l-1.1,0.2l-0.2-1.2l3.7-0.6l0.2,1.2L148.8,69.3z"/>
			<path class="st2" d="M151.4,74l-1.1-6.2l3-0.5l0.2,1.2l-1.7,0.3L152,70l1.5-0.3l0.2,1.2l-1.5,0.3l0.2,1.3l1.8-0.3l0.2,1.3
				L151.4,74z"/>
			<path class="st2" d="M158,72.9l-1.3-2.3l-0.4,0.1l0.4,2.5l-1.4,0.2l-1.1-6.2l2-0.4c1.2-0.2,2,0.3,2.2,1.5
				c0.2,0.9-0.2,1.5-0.6,1.7l1.6,2.6L158,72.9z M156.3,68l-0.4,0.1l0.3,1.6l0.4-0.1c0.4-0.1,0.7-0.4,0.6-0.9
				C157,68,156.6,67.9,156.3,68z"/>
			<path class="st2" d="M161.9,72.2l-1.1-6.2l1.4-0.3l0.9,4.9l1.7-0.3l0.2,1.3L161.9,72.2z"/>
			<path class="st2" d="M167.5,71.4c-1.5,0.3-2.6-0.9-3-2.9c-0.3-2,0.3-3.4,1.8-3.7c1.5-0.3,2.6,0.9,3,2.8
				C169.7,69.6,169,71.1,167.5,71.4z M166.6,66.2c-0.6,0.1-0.8,1-0.6,2.1s0.6,1.9,1.3,1.8c0.6-0.1,0.8-1,0.6-2.1
				C167.7,66.8,167.3,66,166.6,66.2z"/>
			<path class="st2" d="M173,70.4c-1.6,0.3-2.7-0.9-3.1-2.8c-0.3-1.9,0.4-3.5,1.8-3.7c0.8-0.1,1.5,0.1,1.9,0.5l-0.6,1.2
				c-0.3-0.3-0.6-0.4-0.9-0.3c-0.8,0.1-1,1.1-0.8,2.1s0.7,1.9,1.4,1.8c0.2,0,0.4-0.1,0.5-0.2l-0.2-1.2l-0.7,0.1l-0.2-1.2l1.9-0.3
				l0.6,3.3C174.3,69.9,173.8,70.2,173,70.4z"/>
			<path class="st2" d="M177.9,69.5c-1.5,0.3-2.6-0.9-3-2.9c-0.3-2,0.3-3.4,1.8-3.7s2.6,0.9,3,2.8C180,67.8,179.4,69.3,177.9,69.5z
				 M177,64.3c-0.6,0.1-0.8,1-0.6,2.1s0.6,1.9,1.3,1.8c0.6-0.1,0.8-1,0.6-2.1C178,65,177.6,64.2,177,64.3z"/>
			<path class="st2" d="M184.6,68.2l-1.5,0.3l1-5.3l-2.1,0.4l-0.2-1.2l3.7-0.6l0.2,1.1L184.6,68.2z"/>
			<path class="st2" d="M187.8,68H187l0.5-7.2h0.8L187.8,68z"/>
			<path class="st2" d="M192.3,64.2l-0.9,1.6l2-0.4l0.2,1.2l-3.7,0.7l-0.2-1.3l1.5-2.5c0.2-0.4,0.4-0.8,0.3-1.2
				c-0.1-0.4-0.3-0.6-0.6-0.6c-0.3,0.1-0.5,0.4-0.5,0.9l-1.3,0.1c-0.1-1.3,0.6-2.1,1.7-2.2c1.1-0.2,2,0.4,2.2,1.5
				C193,62.9,192.7,63.6,192.3,64.2z"/>
			<path class="st2" d="M196.5,66.2c-1.7,0.3-2.4-1.5-2.6-2.9c-0.2-1.4-0.2-3.3,1.5-3.6s2.4,1.5,2.6,2.9
				C198.2,64,198.2,65.9,196.5,66.2z M195.5,61c-0.6,0.1-0.4,1.3-0.3,2.1c0.1,0.8,0.4,2,1,1.9s0.4-1.3,0.3-2.1
				C196.4,62,196.1,60.9,195.5,61z"/>
			<path class="st2" d="M200.7,65.3l-0.8-4.6l-0.8,0.9l-0.8-1l1.5-1.6l1.2-0.2l1.1,6.2L200.7,65.3z"/>
			<path class="st2" d="M206.9,63l0.2,1.3l-1.3,0.2l-0.2-1.3l-2.3,0.4l-0.2-1.2l1.2-4.1L206,58l0.7,3.8l0.6-0.1l0.2,1.2L206.9,63z
				 M205.1,59.6L205.1,59.6l-0.7,2.6l1.1-0.2L205.1,59.6z"/>
		</g>
		<g>
			<g>
				<path class="st1" d="M169.5,28.2c18.8,0,40.6,16.9,40.6,39.4s-18.3,40.6-40.8,40.6s-40.6-18.2-40.6-40.7
					C128.7,45.7,152.3,28.2,169.5,28.2z"/>
				<path class="st3" d="M173.4,44.6c-0.4-0.1-2.1-0.4-4.1-0.4s-3.7,0.3-4.1,0.4c-0.2,0-0.3-0.2-0.1-0.3c0.1-0.1,4.2-3.2,4.2-3.2
					s4.1,3.1,4.2,3.2C173.7,44.4,173.6,44.6,173.4,44.6z M166.3,64.7c0,0-0.2,0.1-0.3,0.3c0.9,0.7,1.4,2.2,3.2,2.2s2.4-1.5,3.2-2.2
					c-0.1-0.2-0.3-0.3-0.3-0.3s-1.1,0.3-3,0.3C167.5,65,166.3,64.7,166.3,64.7z M169.3,62.2c-0.5,0-0.6-0.2-0.9-0.2
					c-0.3,0-0.9,0.3-1.1,0.5c0,0.1,0.1,0.2,0.1,0.3c0.7,0.1,1.1,0.5,1.9,0.5c0.8,0,1.2-0.4,1.9-0.5c0.1-0.1,0.1-0.2,0.1-0.3
					c-0.1-0.2-0.8-0.5-1.1-0.5S169.8,62.2,169.3,62.2z M210.1,69.8c-0.1,1-0.1,2-0.3,3c-4.6,0.8-6.4-3.3-11.1-3.1
					c0.3,1,0.5,2,0.7,3.1c3.9,0,5.6,3.6,9.9,3.1c-0.2,1.1-0.5,2.2-0.8,3.3c-3.4,0.3-4.7-3.1-8.7-3c0,0.6,0.1,1.1,0.1,1.7
					c0,0.3,0,0.6,0,1c3.4,0,4.5,3.1,7.7,2.9c-0.4,1.1-0.9,2.2-1.3,3.2c-2.3-0.1-3.1-3.1-6.6-2.9c-0.1,0.8-0.2,1.5-0.4,2.3
					c3.1-0.2,3.7,2.6,5.9,2.8c-0.6,1-1.2,2-1.8,3c-1.3-0.7-2.4-2.8-4.9-2.9c0.3-0.8,0.5-1.6,0.7-2.4c-2.2,0-4.7-0.8-6.8-2.8
					c0.7-3.9-5.3-7.8-5.3-10.6c0-3.1,1.6-4.8,1.6-8.9c0-3.1-1.5-6.4-3.8-8.7c-0.4-0.4-0.9-0.8-1.4-1.1c2.1,2.6,3.7,5.6,3.7,9.1
					c0,3.9-1.8,6-1.8,9.6s5.3,6.7,5.3,10.4c0,1.5-0.5,2.9-2,5.7c2.4,2.4,5.5,3.7,7.4,3.7c0.6,0,1-0.2,1.2-0.7
					c0.2-0.4,0.4-0.9,0.6-1.3c2.1,0.1,3.1,2,4.3,2.8c-0.6,0.9-1.3,1.7-2.1,2.5c-0.8-0.9-1.9-2.4-3.4-2.8c-0.3,0.5-0.6,1.1-0.9,1.6
					c1.3,0.4,2.3,1.7,3,2.6c-0.8,0.8-1.6,1.6-2.4,2.3c-0.5-0.8-1.3-1.8-2.2-2.4c-0.3,0.5-0.7,0.9-1,1.3c0.8,0.5,1.5,1.5,1.9,2.2
					c-1,0.8-2,1.5-3,2.2c-0.5-4.1-6.2-7-4.6-11.8c-0.5,0.8-1.1,1.9-1.1,3.2c0,3.5,3.7,6.2,4,9.7c-0.8,0.5-1.6,0.9-2.4,1.3
					c-0.1-3.8-4.1-8-4.1-11.1c0-3.5,4.6-7,4.6-11.1s-5.3-7-5.3-10.6s2.2-5.7,2.2-10.3c0-3.4-1.6-6.8-4.1-9c-0.4-0.4-0.9-0.7-1.4-1
					c2.3,2.8,3.7,5.4,3.7,9.2c0,4.3-2.6,6.8-2.6,11c0,4.3,5.2,6.6,5.2,10.6s-4.8,7.3-4.8,11.4c0,3.7,4.2,7.4,4.3,11.8
					c-0.9,0.4-1.9,0.8-2.8,1.1c0.5-4.4-4.2-9-4.2-12.7c0-4,5-7.4,5-11.7s-5.1-6.3-5.1-10.7c0-4.4,3.1-6.8,3.1-11.7
					c0-3.8-1.9-7.2-4.6-9.3c-0.1,0-0.1-0.1-0.2-0.1c-0.3-0.2-0.5,0-0.3,0.3c1.9,2.4,3,4.8,3,8.5c0,4.4-3.6,8-3.6,12.3
					c0,5.1,4.8,6.5,4.8,10.7s-5.1,7.5-5.1,11.9c0,4.1,4.9,8.7,4,13.5c-1,0.3-2,0.5-3,0.7c0.9-5.9-3.9-10.2-3.9-14.1
					c0-4.2,5.3-7.9,5.3-12c0-3.8-3.8-5.1-4.3-9c-0.1-0.5-0.5-0.9-1.1-0.8c-0.8,0.1-1.8,0.7-3.3,0.7c-1.6,0-2.6-0.5-3.3-0.7
					c-0.6-0.1-1,0.3-1.1,0.8c-0.5,3.9-4.3,5.2-4.3,9c0,4.1,5.3,7.8,5.3,12c0,3.9-4.8,8.2-3.9,14.1c-1-0.2-2.1-0.4-3.1-0.7
					c-0.8-4.7,4-9.4,4-13.5c0-4.4-5.1-7.7-5.1-11.9s4.8-5.6,4.8-10.7c0-4.3-3.6-7.9-3.6-12.3c0-3.6,1-6,3-8.5c0.2-0.2,0-0.5-0.3-0.3
					c-0.1,0-0.1,0.1-0.2,0.1c-2.7,2.1-4.6,5.5-4.6,9.3c0,4.8,3.1,7.3,3.1,11.7s-5.1,6.4-5.1,10.7s5,7.7,5,11.7
					c0,3.6-4.8,8.3-4.2,12.8c-1-0.3-1.9-0.7-2.8-1.1c0.1-4.4,4.3-8.2,4.3-11.9c0-4.1-4.8-7.4-4.8-11.4s5.2-6.3,5.2-10.6
					c0-4.3-2.6-6.7-2.6-11c0-3.9,1.4-6.4,3.7-9.2c-0.5,0.3-1,0.6-1.4,1c-2.5,2.2-4.1,5.6-4.1,9c0,4.6,2.2,6.7,2.2,10.3
					s-5.3,6.5-5.3,10.6s4.6,7.6,4.6,11.1c0,3.1-3.9,7.2-4.1,11c-0.8-0.4-1.6-0.8-2.4-1.3c0.3-3.5,4-6.1,4-9.6c0-1.3-0.6-2.3-1.1-3.2
					c1.5,4.8-4.1,7.6-4.6,11.8c-1-0.7-2-1.4-3-2.2c0.4-0.8,1.1-1.7,1.9-2.2c-0.4-0.4-0.7-0.9-1-1.3c-0.9,0.6-1.7,1.6-2.2,2.4
					c-0.8-0.7-1.6-1.5-2.4-2.3c0.7-0.9,1.6-2.3,3-2.6c-0.3-0.5-0.6-1.1-0.9-1.6c-1.6,0.4-2.6,1.9-3.4,2.8c-0.7-0.8-1.4-1.7-2.1-2.5
					c1.2-0.8,2.2-2.7,4.3-2.8c0.2,0.4,0.4,0.9,0.6,1.3c0.2,0.5,0.6,0.7,1.2,0.7c2,0,5.1-1.3,7.4-3.7c-1.5-2.8-2-4.2-2-5.7
					c0-3.7,5.3-6.8,5.3-10.4s-1.8-5.7-1.8-9.6c0-3.5,1.6-6.6,3.7-9.1c-0.5,0.3-1,0.7-1.4,1.1c-2.3,2.3-3.8,5.6-3.8,8.7
					c0,4.1,1.6,5.8,1.6,8.9c0,2.8-6,6.8-5.3,10.6c-2.1,1.9-4.6,2.8-6.8,2.8c0.2,0.8,0.4,1.6,0.7,2.4c-2.5,0.1-3.6,2.2-4.9,2.9
					c-0.6-1-1.2-2-1.8-3c2.2-0.2,2.9-3,5.9-2.8c-0.2-0.7-0.3-1.5-0.4-2.3c-3.5-0.2-4.3,2.7-6.6,2.9c-0.5-1.1-0.9-2.1-1.3-3.2
					c3.2,0.2,4.3-3,7.7-2.9c0-0.3,0-0.6,0-1c0-0.6,0-1.1,0-1.7c-4-0.1-5.2,3.3-8.6,3c-0.3-1.1-0.6-2.2-0.8-3.3
					c4.3,0.5,5.9-3.1,9.8-3.1c0.2-1,0.4-2.1,0.7-3.1c-4.7-0.2-6.4,3.9-11,3.1c-0.1-1-0.2-1.9-0.3-2.9c5.4,0.6,7.4-3.8,12.3-3.3
					c0.5-1.2,1-2.3,1.6-3.4c-6.1-1.1-8.2,4-13.9,3.3c0.6-22,18.6-39.6,40.8-39.6c22.1,0,40.1,17.6,40.8,39.6
					c-5.7,0.8-7.8-4.3-13.9-3.3c0.6,1.1,1.1,2.2,1.6,3.4C202.6,66.1,204.8,70.4,210.1,69.8z M151.8,52.8c-3-1.2-6.6-0.9-9.7,1
					c-0.5-2.9-2-5.5-4.3-7c-0.3-0.2-0.6,0-0.6,0.3c0.5,6.1-3.1,11.4-7.5,16.1c4.5,1.4,8.4-4.5,14.2-2.4
					C146,57.7,148.7,55,151.8,52.8z M169.3,49.1c-3.8,0-7,2.1-7.8,4.9c-0.1,0.2,0,0.3,0.3,0.2c0.7-0.3,1.5-0.5,2.3-0.5
					c1.5,0,2.9,0.6,3.7,1.6c0.4,1.2,0.4,2.9,0,3.8c-0.6-0.1-0.9-0.6-1.5-0.6s-1.1,0.4-2.2,0.4s-1.2-0.5-1.9-0.5c-0.8,0-1,0.8-1,1.8
					c0,4.2,3.9,10,8,10s8-5.8,8-10c0-0.9-0.2-1.8-1-1.9c-0.4,0.3-0.8,0.6-1.8,0.6c-1.1,0-1.3-0.4-2-0.4s-0.7,1.6-1.6,1.7
					c-0.6-1.4-0.6-3.3-0.1-4.9c0.8-1,2.2-1.6,3.7-1.6c0.8,0,1.6,0.2,2.3,0.5c0.2,0.1,0.3,0,0.3-0.2
					C176.3,51.3,173.1,49.1,169.3,49.1z M175.3,55.2c-0.9,0-2,0.3-2.6,1c-0.1,0.2-0.1,0.5,0,0.7c1.6-0.6,3.1-0.6,3.8,0.2
					c0.4-0.3,0.5-0.6,0.5-1C177,55.6,176.5,55.2,175.3,55.2z M162.1,57.1c0.8-0.8,2.5-0.8,4.2-0.1c0.1-0.9-1.5-1.8-3-1.8
					c-1.1,0-1.7,0.4-1.7,0.9C161.6,56.5,161.7,56.8,162.1,57.1z M188.2,42.8c-3,0.2-5.6,1.2-7.7,3c0.9-2.5,2-4.7,3.5-6.9
					c-3.8,0.4-7,1.8-9.3,4.2l-1.8-4.8l4-3.6l-5.4-0.4l-2.2-5l-2.2,5l-5.4,0.4l4,3.6l-1.8,4.8c-2.3-2.4-5.5-3.8-9.3-4.2
					c1.4,2.1,2.6,4.4,3.5,6.9c-2.1-1.7-4.7-2.7-7.7-3c1.8,2.3,3.4,4.8,4.6,7.4c0.1,0.3,0.4,0.4,0.7,0.2c4.1-2,8.7-3.2,13.6-3.2
					c4.9,0,9.5,1.1,13.6,3.2c0.3,0.2,0.6,0.1,0.7-0.2C184.8,47.6,186.4,45.1,188.2,42.8z M194.7,60.9c5.9-2,9.7,3.8,14.2,2.4
					c-4.4-4.7-8-10-7.5-16.1c0-0.4-0.3-0.6-0.6-0.3c-2.2,1.5-3.8,4.1-4.3,7c-3.1-2-6.7-2.3-9.7-1C189.9,55,192.6,57.7,194.7,60.9z"
					/>
			</g>
		</g>
	</g>
	<g>
		<path class="st3" d="M194,109.5h-0.6v-3.9h-1.5V105h3.5v0.6H194V109.5z"/>
		<path class="st3" d="M198.4,108.4L198.4,108.4l1.3-3.4h1v4.5h-0.6v-3.8l0,0l-1.5,3.8h-0.4l-1.5-3.8l0,0v3.8H196V105h1L198.4,108.4
			z"/>
	</g>
</g>
</svg>
